<svg enable-background="new 0 0 642.98 642.98" viewBox="0 0 642.98 642.98" xmlns="http://www.w3.org/2000/svg"><path d="m328.53 313.13c7.56 0 15.12-.13 22.68.03 10.34.22 20.39 1.54 30.14 5.65 18.5 7.78 26.83 22.42 27.6 41.33.86 21.31-5.18 41.55-13.58 60.89-8.47 19.5-17.36 38.86-26.99 57.82-7.01 13.8-17.7 24.8-30.4 33.84-5.09 3.62-9.58 8.08-14.36 12.14-1.77 1.5-3.41 3.33-5.45 4.31-12.85 6.15-25.5 12.9-38.8 17.84-9.02 3.35-18.84 3.19-27.88-2.12-7.09-4.17-10.1-10.21-9.88-18.19.34-12.31.52-24.62 1.02-36.92.89-21.57 1.88-43.14 2.98-64.7 1.96-38.2 4.24-76.39 5.99-114.6.94-20.6 1.28-41.24 1.47-61.86.17-18.59-.19-37.19-.4-55.79-.05-3.93-.49-7.86-.79-12.24-2.02.38-3.33.49-4.55.87-5.26 1.64-9.11.04-11.61-4.85-2.76-5.41-2.32-10.98 1.47-14.78 2.58-2.58 5.34-5.03 8.26-7.22 3.25-2.44 6.17-4.45 5.79-9.5-.32-4.31 2.93-5.83 6.83-3.86 7.17 3.62 13.38.39 19.94-2.03 13.38-4.94 26.61-10.85 40.45-13.79 13.25-2.82 27.25-2.02 40.58 1.52 8.31 2.2 16.55 5.04 24.38 8.58 15.52 7.02 23.83 19.4 25.33 36.46 1.94 22.09-6.77 41.19-17.43 59.35-8.38 14.28-17.78 28.12-28.08 41.07-9.46 11.9-20.73 22.37-31.19 33.48-1.52 1.61-2.95 3.3-4.43 4.95.29.76.6 1.54.91 2.32zm-67.46 220.56c7.23 1.62 12.97.01 18.81-2.84 17.72-8.64 34.39-18.72 48.92-32.26 11.9-11.09 24.61-21.14 30.43-37.45 3.77-10.56 9.15-20.65 14.73-30.42 8.19-14.32 13.79-29.57 17.39-45.48 1.8-8 2.51-16.5 2.05-24.68-.7-12.62-9.15-30.23-28.8-31.93-12.58-1.09-25.24-1.23-37.86-1.85-10.11-.5-19.83.52-28.63 6.25-1.88 1.23-4.35 1.66-6.62 2.16-5.85 1.29-10.85-1.01-12.41-5.54-1.42-4.11.84-7.43 6.73-10.62 6.12-3.32 12.47-6.4 18.08-10.46 18.42-13.34 33.44-30.37 48.89-46.82 13.98-14.88 23.63-32.77 32.8-50.96 4.92-9.77 7.47-19.75 8.55-30.47 1.92-19.08-8.24-30.85-22.74-35.33-10.99-3.39-22.68-4.96-34.18-6.14-6.43-.66-13.33.3-19.63 1.98-11.54 3.08-22.91 6.91-34.15 11-17.06 6.22-17.44 8.03-16.16 26.32 1.36 19.55 2.5 39.19 2.07 58.76-.83 38.57-2.88 77.11-4.29 115.67-.79 21.6-.74 43.25-2.13 64.81-1.88 29.19-4.93 58.31-3.74 87.61.38 9.53 1.24 19.02 1.89 28.69z"/></svg>