<?xml version="1.0" encoding="utf-8"?>
<!-- Generator: Adobe Illustrator 23.1.1, SVG Export Plug-In . SVG Version: 6.00 Build 0)  -->
<svg version="1.1" id="Layer_1" xmlns="http://www.w3.org/2000/svg" xmlns:xlink="http://www.w3.org/1999/xlink" x="0px" y="0px"
	 viewBox="0 0 512 512" style="enable-background:new 0 0 512 512;" xml:space="preserve">
<path d="M88.25,292.2c5.71-5.96,12.47-10.26,14.86-16.29c2.23-5.64-0.18-13.12-0.56-19.88c7.12,2.56,10.4,9.78,8.9,19.19
	C109.81,285.56,102.02,291.6,88.25,292.2z"/>
<path d="M240.03,261.33c8.3,0.54,13.35,6.54,17.11,13.83c4.7,9.12,3.94,12.81-2.92,18.1c-9.17,7.07-17.45,7.66-24.21,1.43
	c-4.36-4.02-8.64-8.01-8.65-14.89C221.36,269.11,228.57,261.34,240.03,261.33z M250.68,283.76c0.27-5.68-6.58-14.1-11.77-14.46
	c-4.54-0.31-8.38,3.67-8.7,9.02c-0.35,5.78,5.19,12.04,10.8,12.22C245.83,290.7,250.5,287.43,250.68,283.76z"/>
<path d="M343.52,282.97c29.69-13.49,61.48-9.53,92.41-15.48c-2.1-4.98-5.01-8.07-9.51-9.84c-3.09-1.21-6.3-2.36-9.04-4.17
	c-1.35-0.89-2.87-4.06-2.38-4.68c1.19-1.52,3.47-2.22,5.39-3.08c0.51-0.23,1.41-0.02,1.93,0.31c9.2,5.88,18.62,11.46,27.41,17.89
	c3.95,2.89,3.86,8.22,0.56,11.67c-9.85,10.33-20.09,20.31-30.43,30.16c-2.61,2.48-6.01,2.98-8.39-2.02
	c9.83-7.87,19.52-16.13,27.6-27.66c-3.06-0.26-4.95-0.72-6.77-0.53c-21.81,2.34-43.63,4.58-65.39,7.33
	c-4.85,0.61-9.47,3.05-14.19,4.67C348.83,288.87,345.63,288.61,343.52,282.97z"/>
</svg>
