<svg enable-background="new 0 0 512 512" viewBox="0 0 512 512" xmlns="http://www.w3.org/2000/svg"><path d="m373.53 254.3c-5.83 5.14-9.91 8.9-14.16 12.46-14.18 11.85-29.34 11.37-43.19-.66-4.97-4.32-6.26-9.45-5.2-15.18 4.7-25.51 27.46-39.34 51.79-35.22 5.53.94 11.01 2.96 14.31 8.26.35.56.77 1.33 1.31 1.47 10.8 2.91 7.22 10.16 5.78 17.38-2 10.06-3.59 20.27-4.39 30.49-1.37 17.55-5.05 34.96-3.16 52.73.24 2.29-.99 4.74-1.48 6.83-4.83.1-5.94-2.41-5.85-5.2.41-12.26.97-24.51 1.68-36.75.66-11.52 1.6-23.02 2.56-36.61zm-33.11 14.29c2.43-.99 7.45-1.8 10.76-4.63 7.51-6.41 14.84-13.28 21-20.97s3.28-14.93-6.04-18.79c-19.25-7.96-43.14 4.01-47.87 24.33-.74 3.2-.39 7.69 1.38 10.24 4.31 6.23 10.73 9.73 20.77 9.82z"/><path d="m487.81 281.59c.94 14.41-7.84 28.34-21.93 34.83-11.72 5.4-28.73 2.45-38-7.09-8.45-8.69-10.73-19.9-10.17-31.39.69-14.36 3.9-28.32 10.38-41.34 3.47-6.98 4.26-7.27 12.34-4.88 1.26.37 2.56.76 3.86.82 27.46 1.27 40.75 22.39 43.22 45.07.14 1.33.2 2.66.3 3.98zm-6.84.33c.03-10.75-2.74-20.09-8.36-28.07-6.15-8.71-14.78-14.34-25.93-14.78-9.68-.38-13.61 2.61-16.58 12.01-.7 2.21-1.8 4.31-2.42 6.54-3.52 12.75-4.55 25.6-.01 38.28 3.74 10.43 20.18 19.19 30.13 15.8 11.46-3.9 24.11-16.04 23.17-29.78z"/><path d="m176.27 82.54c-2.18-4.6-1.2-8.54 2.04-11.95 7.91-8.31 27.88-9.47 37.07-2.24 6.93 5.44 8.69 10.95 5.81 19.26-3.54 10.2-9.4 19.09-16.47 27.12-7.9 8.98-16.18 17.63-24.26 26.46-1.5 1.64-2.82 3.45-5.8 7.12 22.32-2.17 41.68-9.59 61.96-10.19.94 7.8-.26 9.33-5.71 9.86-10.18.99-20.35 2.21-30.48 3.69-9.53 1.39-18.98 3.28-28.48 4.84-1.95.32-4.08.59-5.94.13-1.72-.43-4.08-1.58-4.52-2.94-.46-1.39.62-3.87 1.81-5.11 6.94-7.16 14.35-13.88 21.14-21.17 7-7.52 14.02-15.14 20-23.45 4.19-5.82 7.05-12.72 9.74-19.45 2.35-5.89.38-9.3-5.42-11.88-8.7-3.86-18.8-1.59-25.5 5.63-1.51 1.63-3.23 3.06-4.89 4.53-.17.14-.63-.07-2.1-.26z"/><path d="m117.75 59.3c6.75 5.07 5.73 10.14 5.75 14.51.08 23.96-.22 47.93-.29 71.9-.01 4.96.74 9.95.44 14.88-.11 1.75-2.27 3.39-3.49 5.07-1.5-1.45-3.4-2.68-4.35-4.42-.71-1.29-.23-3.25-.2-4.91.36-28.63.7-57.26 1.13-85.88.02-3.1.53-6.19 1.01-11.15z"/><path d="m421.57 137.89c3.07 3.89 4.79 9.11 11.63 8.61 9.48-.7 18.81-1.49 25.81-8.53 5.96-5.99 3.57-19.37-4.17-23.47-8.95-4.74-18.22-7.8-28.4-2.38-5.72 3.04-8.77.61-8.11-5.96.96-9.57 2.1-19.13 3.52-28.65.99-6.66 1.91-6.74 8.45-6.66 10.24.13 20.49-.34 30.74-.5 3.43-.05 8.51-2 9.13 2.95.59 4.79-4.58 4.92-8.07 5.09-7.61.36-15.24.37-22.87.37-7.96 0-9.06.86-9.94 8.89-.43 3.93-.65 7.88-1 12.21 7.14 1.15 14.36 1.88 21.35 3.53 16.79 3.96 24.95 18.08 19.41 33.99-1.3 3.72-4.39 7.78-7.78 9.62-8.81 4.79-18.54 7.4-28.7 7.01-3.54-.14-7.37-.98-10.47-2.63-5.81-3.1-5.92-7.98-.53-13.49z"/><path d="m302 72.68c-8.35-8.99-21.17.56-27.82-9.01.56-1.2.73-2.21 1.13-2.31 10.25-2.49 20.39-2.36 29.78 2.89 4.97 2.78 6.44 6.89 3.95 11.89-1.99 4-5.22 7.57-8.52 10.68-3.57 3.36-7.85 5.96-12.38 9.3 4.47 3.17 8.38 5.56 11.85 8.48 15.92 13.39 11.61 35.52-4.43 43.15-10.14 4.82-19.77 9.51-31.33 5.74-4.61-1.5-7.73-4.25-8.05-9.05-.34-5.05 1.77-8.9 8.51-10.86-.74 3.97-1.28 6.91-1.99 10.74 2.07.98 4.25 2.54 6.65 3.06 9.98 2.16 25.99-5.72 30.67-14.82 3.97-7.72 1.41-17.28-6.31-22.99-5.53-4.09-11.8-5.94-18.69-6.02-3.8-.04-8.21.74-9.93-4.25 1.14-4.53 4.97-3.92 8.04-4.68 12.6-3.12 21.47-10.99 28.87-21.94z"/><path d="m233.9 244.74c-.91 4.04-1.11 7.03-2.23 9.62-9.73 22.59-19.62 45.1-29.48 67.63-.67 1.52-1.16 3.56-2.38 4.29-1.97 1.18-4.47 1.48-6.75 2.15-.32-2.1-1.55-4.61-.82-6.23 5.05-11.17 10.77-22.05 15.76-33.25 4.05-9.09 7.45-18.48 10.96-27.8.65-1.73.45-3.79.72-6.52-2.8.18-4.99.3-7.17.48-13.89 1.15-27.76 2.44-41.67 3.31-1.8.11-4.84-1.53-5.4-3.06-1.24-3.39 1.98-4.43 4.54-5.13 1.89-.52 3.97-.87 5.9-.67 16.8 1.8 33.03-1.91 49.37-4.78 2.18-.36 4.47-.04 8.65-.04z"/><path d="m458.21 406.31c-20.54-7.04-44.48 6.16-49.98 26.32-1.92 7.03-.32 12.39 5.04 16.95 11.35 9.66 23.82 15.85 39.32 12.88 1.26-.24 2.6-.12 3.9-.09.28.01.55.35 1.87 1.27-1.54 1.5-2.69 3.44-4.34 4.1-13.3 5.33-25.44 1.73-36.97-5.37-1.97-1.21-3.66-2.88-5.5-4.3-12.97-10.04-15.78-24.81-6.4-38.36 8.87-12.82 21.76-20.55 36.65-24.37 10.02-2.58 14.27.59 16.41 10.97z"/><path d="m363.33 366.64c7.62-1.47 14.41 1.48 20.2 7.04 6.21 5.97 6.24 12.17.02 18.02-5.67 5.33-12.24 9.03-20.26 9.43-5.5.27-9.47-2-12.21-6.85-3.67-6.49-3.44-13.51-2.22-20.29 1.06-5.93 4.75-7.38 14.47-7.35zm-6.5 17.5c-.01 5.82 2.22 8.48 7.24 8.65 5.84.19 15.45-6.72 15.11-10.86-.34-4.12-7.42-8.62-13.37-8.5s-8.97 3.71-8.98 10.71z"/><path d="m307.1 465.89c-3.88 2.2-7.17 2.53-9.28-1.43-.45-.85 1.15-3.97 2.3-4.29 4.49-1.25 6.37 1.36 6.98 5.72z"/><path d="m356.83 384.14c.01-7 3.03-10.6 8.98-10.71 5.95-.12 13.03 4.38 13.37 8.5.34 4.14-9.27 11.05-15.11 10.86-5.02-.17-7.25-2.83-7.24-8.65z" fill="#fff"/></svg>