<?xml version="1.0" encoding="utf-8"?>
<!-- Generator: Adobe Illustrator 23.1.1, SVG Export Plug-In . SVG Version: 6.00 Build 0)  -->
<svg version="1.1" id="Layer_1" xmlns="http://www.w3.org/2000/svg" xmlns:xlink="http://www.w3.org/1999/xlink" x="0px" y="0px"
	 viewBox="0 0 642.98 642.98" style="enable-background:new 0 0 642.98 642.98;" xml:space="preserve">
<path d="M346.37,313.01c-1.6,2.65-3.18,4.36-3.74,6.35c-8.42,30.17-26.26,54.88-45.2,79.06c-6.36,8.12-14.32,13.34-23.25,18.17
	c-11.5,6.21-28.82-0.15-33.38-12.05c-4.36-11.37-7.04-22.6-7.69-34.69c-1.56-29.17-3.51-58.32-5.73-87.45
	c-0.47-6.18-2.33-12.37-4.34-18.29c-2.27-6.68-1.45-12.17,3.07-13.69c5.36-1.8,11.32,1.71,12.83,8.03
	c2.84,11.9,4.97,23.91,5.71,36.19c1.71,28.53,3.39,57.06,5.91,85.52c0.55,6.26,3.72,12.73,7.16,18.18
	c3.64,5.77,8.75,6.05,14.78,2.49c10.61-6.28,17.41-16.09,24.04-26.08c4.95-7.45,10.57-14.51,14.98-22.26
	c5.07-8.9,9.4-18.26,13.58-27.63c3.09-6.94,5.49-14.2,8.07-21.36c5.39-14.96,12.15-29.47,14.5-45.42c0.33-2.21,1.27-4.72,2.78-6.25
	c1.9-1.94,4.86-4.42,7.03-4.14c3.53,0.46,6.67,3.2,6.6,7.57c-0.05,2.98-0.49,5.96-0.86,8.93c-2.97,23.63-1.71,47.02,2.3,70.5
	c2.17,12.69,7.27,23.92,12.12,35.58c5.78,13.89,24.32,15.63,34.59,6.86c1.26-1.07,2.28-2.92,3.67-3.23c2.4-0.53,6.27-1.11,7.23,0.12
	c1.51,1.94,2.51,6.39,1.32,7.97c-5.41,7.2-11.63,14.41-21.5,14.54c-7.89,0.1-15.91-1-23.66-2.58c-7.08-1.44-10.33-7.59-13.73-13.5
	c-11.36-19.76-15.8-41.37-17.93-63.68C347.54,315.87,347.06,315.03,346.37,313.01L346.37,313.01z"/>
<path d="M-523.76-1960.79c-1.23,1-1.97,1.94-2.92,2.24c-0.45,0.14-1.28-0.92-1.94-1.43c0.69-0.85,1.26-1.89,2.13-2.45
	C-526.19-1962.62-525.13-1961.64-523.76-1960.79z"/>
</svg>
