<?xml version="1.0" encoding="utf-8"?>
<!-- Generator: Adobe Illustrator 23.1.1, SVG Export Plug-In . SVG Version: 6.00 Build 0)  -->
<svg version="1.1" id="Layer_1" xmlns="http://www.w3.org/2000/svg" xmlns:xlink="http://www.w3.org/1999/xlink" x="0px" y="0px"
	 viewBox="0 0 642.98 642.98" style="enable-background:new 0 0 642.98 642.98;" xml:space="preserve">
<path d="M331.52,301.17c0-6.18,0-11.99,0-18.23c-2.96,0-5.26-0.41-7.36,0.07c-12.93,2.95-25.8,5.65-38.34,10.61
	c-16.01,6.33-33.03,10.09-49.55,15.19c-6.34,1.96-12.47,4.61-18.74,6.83c-2.82,1-5.69,2.09-8.62,2.45c-4.41,0.54-11.05-4.21-11.44-8
	c-0.53-5.14,3.54-6.91,7.23-8.28c6.85-2.55,13.86-4.69,20.85-6.85c18.09-5.59,36.53-10.23,54.2-16.91
	c14.77-5.58,29.67-9.52,45.26-11.13c5.36-0.55,7.65-3.44,7.76-8.49c0.08-3.63,0.02-7.27,0.02-11.51c-2.62-0.26-4.93-1.04-6.98-0.59
	c-19.11,4.16-38.28,8.12-57.21,13c-10.55,2.72-20.68,7.07-31.01,10.68c-1.87,0.65-3.72,1.78-5.61,1.83
	c-4.23,0.12-8.02-1.25-9.48-5.74c-1.48-4.56,0.56-7.81,4.62-9.8c2.68-1.31,5.55-2.22,8.31-3.36c3.6-1.48,7.17-3.02,12.5-5.27
	c-9.39-6.09-12.42-14.24-13.98-23.03c-1.03-5.81-1.75-11.69-2.24-17.57c-0.39-4.67,2.74-7.26,6.59-9.03
	c3.73-1.71,6.32,0.23,8.69,2.87c0.85,0.94,1.93,1.67,3.11,2.66c10.2-3.42,20.16-6.95,30.24-10.09c8.84-2.76,17.79-5.19,26.74-7.57
	c5.45-1.45,10.96-2.74,16.5-3.78c11.17-2.08,13.36-4.48,13.7-15.51c0.18-5.66,0.71-11.31,0.73-16.96c0.02-6.39-1.75-7.83-7.84-6.54
	c-3.57,0.76-7.03,2.05-10.57,3c-15.05,4.08-30.1,8.16-45.17,12.19c-6.38,1.7-12.79,3.31-19.2,4.89c-2.25,0.55-4.57,1.39-6.81,1.25
	c-4.05-0.26-6.85-2.79-7.64-6.73c-0.71-3.56,1.86-5.39,4.82-6.65c9.5-4.03,18.93-7.98,29.54-8.6c6.58-0.39,13.21-1.77,19.58-3.55
	c12.17-3.41,24.04-7.92,36.29-10.98c6.36-1.59,8.14-5.04,7.71-10.61c-0.88-11.56-2.03-23.1-2.89-34.67
	c-0.27-3.57-0.8-7.46,0.27-10.71c2.43-7.4,10.46-8.96,15.89-3.35c3.83,3.95,5.96,8.74,5.61,14.47c-0.58,9.27-1.06,18.55-1.51,27.83
	c-0.14,2.89-0.02,5.78-0.02,9.57c5.03-0.57,8.84-1.08,12.67-1.43c4.44-0.4,8.04,1.12,9.46,5.57c1.07,3.36-2.56,7.94-7.21,9.31
	c-2.86,0.85-5.84,1.34-8.79,1.81c-4.99,0.78-7.83,3.67-8.16,8.62c-0.59,8.88-0.91,17.78-1.41,28c4.31,0.09,7.85,0.57,11.28,0.14
	c8.55-1.07,17.02-3.26,25.59-3.69c10.26-0.51,20.68-0.44,30.85,0.83c9.56,1.2,13.21,11.57,6.52,18.92
	c-7.54,8.28-16.45,15.33-24.82,22.85c-1.9,1.71-4.02,3.2-6.46,5.12c1.7,2.45,3.08,4.22,4.22,6.13c2.27,3.81,0.6,7.05-1.83,10.02
	c-2.34,2.87-5.38,4.38-8.75,2.2c-4.16-2.7-8.23-1.77-12.48-0.78c-3.88,0.9-7.8,1.66-11.69,2.51c-14.32,3.14-17.45,8.31-14.35,23.84
	c0.9,0.14,2.19,0.77,2.76,0.38c8.49-5.88,18.16-5.06,27.74-5.31c14.25-0.37,28.48-1.35,42.73-1.68c5.28-0.12,10.66,0.49,15.86,1.47
	c4.71,0.88,6.59,4.74,5.31,10.08c-1,4.2-2.32,8.35-3.84,12.39c-4.67,12.45-9.32,24.92-14.38,37.22c-1.94,4.7-4.99,8.93-8.12,14.41
	c4.21,1.03,7.22,1.23,9.63,2.53c2.08,1.13,4.9,3.57,4.85,5.34c-0.08,2.45-2.28,5.08-4.13,7.13c-0.94,1.04-3.17,0.8-4.67,1.46
	c-8.04,3.57-17.9,2.49-24.58,9.7c-0.95,1.02-3.07,1.16-4.69,1.32c-13.87,1.38-27.75,2.58-41.61,4.03c-6.24,0.65-7.88,2.39-8.55,8.94
	c-0.44,4.3-0.21,8.66-0.47,12.97c-2.34,38.52-4.77,77.04-7.06,115.56c-0.67,11.29-0.43,22.65-1.59,33.88
	c-0.91,8.8-2.57,17.7-5.34,26.07c-2.72,8.23-9.18,14.09-17.77,16.2c-15.34,3.76-30.48,5.19-45.96-1.17
	c-12.42-5.1-24.4-10.35-34.59-19.31c-7.94-6.97-13.66-15.41-17.96-24.89c-1.16-2.55-3.31-5.94,0.33-7.97
	c3.65-2.03,6.14,0.91,8.39,3.48c5.22,5.97,10.11,12.27,15.78,17.77c6.52,6.32,14.29,10.82,23.41,12.68c2.25,0.46,4.6,1.22,6.5,2.47
	c9.87,6.5,20.68,4.74,31,2.74c11.82-2.29,19.14-12.07,20.06-25.05c1.02-14.27,1.3-28.6,2.27-42.87c2.06-30.17,4.61-60.31,6.45-90.5
	c0.74-12.14,0.12-24.36,0.12-37.12c-2.38,0.23-4.65,0.27-6.83,0.71c-11.4,2.29-22.91,4.19-34.15,7.15
	c-16.7,4.39-33.2,9.53-49.78,14.37c-6.36,1.86-12.66,3.95-19.08,5.56c-2.16,0.54-4.68,0.22-6.91-0.28c-5.03-1.13-9.09-5.33-9.39-9.2
	c-0.31-4.01,2.9-7.13,9.17-8.89c1.28-0.36,2.58-0.74,3.89-0.88c21.33-2.23,41.43-9.34,61.86-15.28c8.55-2.48,17.65-3,26.38-4.91
	c7.44-1.63,14.71-4,22.06-6.01c3.27-0.89,5.26-2.85,5.29-6.34c0.05-6.91,0.02-13.83,0.02-21.53c-2.96,0.22-5.26-0.03-7.28,0.6
	c-22.2,6.88-45.04,11.83-66.16,22.02c-2.91,1.4-6.33,2.08-9.58,2.37c-4.48,0.41-7.87-2.04-9.26-6.16c-1.52-4.52,1.99-6.39,5.35-8.24
	c15.58-8.6,32.63-13.01,49.58-17.76C306.19,308.58,318.57,304.91,331.52,301.17L331.52,301.17z M333.21,195.92
	c-3.55,0.58-6.14,0.74-8.58,1.43c-22.02,6.24-44.04,12.47-65.97,19.01c-3.18,0.95-5.87,3.52-9.1,5.53
	c4.59,7.54,8.53,14.02,12.99,21.36c9.6-1.31,19.5-2.1,29.16-4.1c12.32-2.56,24.48-5.95,36.6-9.34c2.12-0.59,5.24-2.85,5.35-4.51
	C334.32,215.81,334.66,206.25,333.21,195.92L333.21,195.92z M406.11,314.78c-1.64-1.22-3.89-2.04-4.65-3.59
	c-3.28-6.73-9.07-6.06-14.66-5.11c-7.84,1.33-15.76,2.68-23.32,5.07c-17.82,5.64-17.74,5.89-16.89,24.9
	c0.38,8.49,1.02,9.7,9.22,9.08c8.89-0.67,17.64-3.03,26.53-4c12.53-1.37,20.03-7.75,22.31-20.2
	C405.02,318.97,405.56,317.07,406.11,314.78L406.11,314.78z M349.65,298.52c22-6.94,44.12-12.5,67.18-1.1
	c3.11-9.28,5.78-17.26,8.59-25.66c-2.08-0.63-3.3-1.37-4.49-1.31c-12.54,0.65-25.09,1.17-37.6,2.25
	c-9.54,0.83-19.07,2.12-28.48,3.84c-2.43,0.45-5.6,2.9-6.37,5.14C346.81,286.58,345.47,291.97,349.65,298.52z M401.69,184.89
	c-16.12,1.13-30.26,1.9-44.33,3.35c-2.25,0.23-5.79,3.38-5.98,5.43c-0.84,8.85-0.9,17.8-0.69,26.71c0.07,2.97,2.64,4.62,5.82,3.41
	c2.46-0.93,4.94-2.01,7.12-3.45c8.02-5.27,16.22-10.34,23.78-16.23C393.01,199.75,398.16,194.58,401.69,184.89L401.69,184.89z"/>
</svg>
