<svg enable-background="new 0 0 512 512" viewBox="0 0 512 512" xmlns="http://www.w3.org/2000/svg"><path d="m340.52 219.44c-5.57-.07-7.35 7.23-13.31 2.92 4.87-5.36 9.55-10.51 14.22-15.65-.56-.57-1.12-1.13-1.68-1.7-4.54 4.1-9.37 7.94-13.44 12.46-1.33 1.48-1.62 5.14-.78 7.13 6.83 16.22 5.55 33.28 5.64 50.2.01 1.31.03 2.84-.6 3.88-.58.96-2.03 1.9-3.09 1.9s-2.84-1.01-3.05-1.88c-.52-2.18-.27-4.53-.44-6.8-1.03-13.89-2.03-27.78-3.19-41.65-.13-1.52-1.19-2.97-1.91-4.67-6.29.78-7.31 4.85-7.93 9.8-2.47 19.86-6.55 39.37-13.47 58.21-3.9 10.61-7.91 21.18-11.78 31.8-1.05 2.87-1.81 6.41-5.85 4.98-4.16-1.46-2.26-4.59-1.25-7.47 6.64-18.8 13.84-37.43 19.54-56.52 6.24-20.88 7.59-42.5 5.99-64.25-.16-2.24-.99-4.44-1.71-7.51-3.19.66-5.94 1.53-8.73 1.67-1.33.07-3.48-.95-3.9-2.02-.45-1.12.27-3.66 1.26-4.23 2.52-1.44 5.39-2.55 8.26-3.04 9.17-1.6 18.37-3.05 27.6-4.22 18.92-2.39 37.05-7.76 54.94-14.1.63-.22 1.33-.8 1.85-.66 2.31.65 5.74.87 6.59 2.43 1.65 3.03-1.28 4.71-3.93 5.51-2.21.67-4.58.8-6.84 1.32-21.37 4.95-42.73 9.92-64.08 14.92-.94.22-1.81.74-3.13 1.29v26.92c8.78-5.55 14.17-12.21 19.84-18.41 4.65-5.08 9.52-8.26 16.97-5.29 6.48-12.86 17.81-6.54 27.42-6.97 1.19-.05 2.52 2.81 4.47 5.15-8.91 2.72-17.8-.96-24.08 5.36-3.41 3.43-6.32 7.34-9.46 11.03.37.63.75 1.26 1.12 1.9 2.65-.6 5.36-1.02 7.95-1.84 6.98-2.19 13.85-4.78 20.91-6.66 1.64-.44 3.86 1.3 5.81 2.03-1.3 1.59-2.38 3.47-3.97 4.69-1.21.93-3.06 1.04-4.53 1.48-2.47 5.61-.41 9.86 3.88 13.3-2.14 2.45-3.62 4.15-5.1 5.85-.59.66-1.19 1.32-1.78 1.98 2.63.73 5.26 1.46 7.88 2.18-10.42 7.15-12.86 15.2-12.91 24.77 10.47 2.8 20.01-4.54 32.23-2.01-3.04 2.5-4.22 4.2-5.74 4.6-8.33 2.22-16.66 4.6-25.15 5.98-8.85 1.44-11.93-3.02-9.13-11.86.88-2.77 1.49-5.63 2.72-10.32-4.82 1.37-8.07 2.3-11.34 3.24-.41 5.1-.77 9.59-1.11 13.83-4.99 1.18-6.54-1.05-6.62-4.53-.23-9.88-.15-19.77-.47-29.65-.12-3.52-1.03-7.05-1.61-10.8zm10.04 7.97c5.78-.85 11.7-1.16 15.78-6.12.7-.85-.06-2.89-.14-4.34-12.97-.01-16.6 2.4-15.64 10.46zm-.04 14.84c12.98-2.33 12.98-2.33 13.08-9.07-11.04-.45-12.71.62-13.08 9.07z"/><path d="m230.55 357.75c-7.16.01-12.06.03-14.22-6.88 2.03-.97 3.94-1.88 6.56-3.14-.63-2.6-1.3-5.34-2.23-9.16-14.02 0-27.61-.36-41.18.1-13.62.47-27.27 1.27-40.8 2.84-13.16 1.52-26.19 4.2-39.19 6.36 1.1-15.05 2.52-28.86 3.01-42.71.51-14.3.35-28.64.06-42.96-.29-13.95-1-27.9-1.73-41.85-.71-13.69-5.96-27.03-4.52-39.34 36.33-14.37 73.19-17.76 110.75-24 .98 4.4 2.43 8.11 2.53 11.85 1.44 50.05 7.26 99.59 16.51 148.77 1.72 9.15 3.15 18.36 4.36 27.59.5 3.82.09 7.75.09 12.53zm-126.08-167.44c1.6 17.74 4.16 35.25 4.54 52.8.58 26.91-.38 53.86-.58 80.79-.03 4.5.43 9 .63 12.92 37.54-2.65 73.85-5.21 110.18-7.77-.02-.17-19.66-161.68-19.78-162.66-5.12.35-10.39.3-15.52 1.15-12.44 2.07-24.77 4.81-37.22 6.8-15.1 2.42-30.39 4.01-42.25 15.97z"/><path d="m369.29 319.76c4.52-.67 7.71-1.15 12.85-1.91-1.31 3.02-1.64 5.82-2.84 6.26-15.04 5.52-30.47 9.38-46.66 7.92-5.55-.5-7.15-3.91-5.09-9.27 1.19-3.08 2.92-5.96 3.99-9.08 2.58-7.52 2.42-7.77-4.47-14.13 2.24-1.49 4.08-3.32 6.28-4.06 4.46-1.5 7.44.18 7.51 4.9.07 5.2-1.11 10.44-1.98 15.63-.42 2.49-1.35 4.9-2.19 7.82 9.12 3.2 16.68-.22 25.01-2.1-2.12-12.67-8.29-23.99-8.57-36.34 5.11-1.45 6.56 1.27 7.41 4.22 1.28 4.45 1.99 9.07 3.29 13.51 1.63 5.59 3.62 11.08 5.46 16.63z"/><path d="m377.12 277.45c5.67-3.42 8.08.3 9.82 3.69 4.54 8.86 8.97 17.81 12.82 26.99 4.88 11.62 9.03 23.55 13.72 35.25 1.18 2.96 2.83 5.89-1.02 7.57-4.2 1.83-6.02-1.35-7.19-4.7-3.38-9.72-6.22-19.65-10.11-29.16-4.65-11.34-10.17-22.31-15.3-33.45-.91-1.99-1.77-4-2.74-6.19z"/><path d="m311.26 333.95c0-2.04-.09-3.64.01-5.24.9-13.41 1.84-26.81 2.92-42.3 2.84 2.32 5.28 3.31 5.6 4.77.85 3.83 1.28 7.91.99 11.82-.66 8.9-1.85 17.77-2.84 26.64-.37 3.37-1.49 5.87-6.68 4.31z"/><path d="m350.18 162.5c-10.8-.39-20.94-.64-31.05-1.26-1.56-.1-3.02-1.88-4.53-2.88 1.21-1.35 2.45-3.9 3.61-3.87 9.89.29 19.81.66 29.61 1.87 3.38.41 4.35 3.74 2.36 6.14z"/><path d="m350.56 227.41c-.96-8.05 2.68-10.46 15.64-10.46.08 1.45.84 3.49.14 4.34-4.08 4.96-10.01 5.27-15.78 6.12z" fill="#fff"/><path d="m350.52 242.25c.37-8.45 2.04-9.52 13.08-9.07-.1 6.74-.1 6.74-13.08 9.07z" fill="#fff"/><path d="m153.56 256.57c-4.49 12.27-8.16 22.52-12.01 32.7-1.29 3.4-2.78 6.77-4.66 9.87-1.4 2.32-3.63 3.97-7.62 1.32 11.28-22.09 17.22-45.81 20.59-71.59-3.63.57-5.96.44-7.83 1.3-7.52 3.48-14.85 7.37-22.37 10.85-1.52.7-3.56.28-5.36.37.47-2.01.28-5.11 1.51-5.85 6.25-3.72 12.77-7.04 19.38-10.09 4.48-2.06 9.28-3.44 14.04-5.15.67-6.15 1.28-11.8 1.97-18.12 8.71 3.1 4.19 10.8 8.07 15.25 6.84-1.06 13.98-2.17 21.13-3.27 1.64-.25 3.41-.94 4.9-.57 1.66.4 3.07 1.79 4.59 2.75-1.48 1.34-2.78 3.53-4.47 3.88-9.02 1.86-18.13 3.26-27.02 4.79-.56 3.28-.95 5.21-1.21 7.16-.73 5.54-3.32 11.82-1.57 16.44 1.77 4.66 7.81 7.74 12.06 11.41 5.79 5 11.88 9.67 17.39 14.95 3.04 2.91 5.43 6.64 7.52 10.33.53.95-1.2 3.17-1.89 4.81-1.31-.74-3.06-1.16-3.86-2.26-8.88-12.22-21.81-19.88-33.28-31.28z"/></svg>