<?xml version="1.0" encoding="utf-8"?>
<!-- Generator: Adobe Illustrator 23.1.1, SVG Export Plug-In . SVG Version: 6.00 Build 0)  -->
<svg version="1.1" id="Layer_1" xmlns="http://www.w3.org/2000/svg" xmlns:xlink="http://www.w3.org/1999/xlink" x="0px" y="0px"
	 viewBox="0 0 642.98 642.98" style="enable-background:new 0 0 642.98 642.98;" xml:space="preserve">
<path d="M271.71,315.35c23.06,8.12,39.78,22.82,57.2,36.52c14.35,11.28,29.08,22.06,43.5,33.25c7.87,6.1,15.25,12.83,23.18,18.85
	s16.42,11.3,24.39,17.25c13.58,10.14,26.91,20.6,40.42,30.82c5.26,3.98,5.93,10.82,1.09,15.24c-3.83,3.49-7.28,1.85-10.54-1.15
	c-5.13-4.74-10.04-9.77-15.52-14.07c-18.06-14.16-36.31-28.07-54.52-42.04c-23.19-17.79-46.38-35.59-69.63-53.31
	c-8.98-6.84-17.93-13.74-27.25-20.09c-11.68-7.96-18.77-5.04-23.29,8.18c-5.59,16.36-11.92,32.47-17.66,48.78
	c-7.28,20.67-14.34,41.43-21.4,62.18c-1.7,5.01-3.21,9.96-1.5,15.54c1.79,5.82-0.83,11.09-3.92,15.98
	c-2.67,4.24-7.01,5.41-11.32,4.52c-4.55-0.94-6.15-5.33-5.79-9.39c0.55-6.23,1.32-12.64,3.4-18.48
	c5.45-15.26,11.87-30.16,17.48-45.36c3.09-8.37,5.03-17.16,7.97-25.59c5.23-15.01,10.61-29.98,16.32-44.81
	c6.78-17.62,14.01-35.07,20.96-52.62c0.81-2.04,1.07-4.3,1.87-7.66c-4.44,0.84-7.96,1.18-11.28,2.2
	c-19.04,5.83-38,11.93-57.07,17.67c-4.39,1.32-9.09,2.08-13.67,2.15c-4.16,0.06-6.65-3.02-6.92-7.13c-0.25-3.87,2.18-5.99,5.77-7.06
	c14.27-4.24,28.48-8.72,42.8-12.78c14.34-4.06,28.74-7.98,43.25-11.39c4.24-1,6.17-3.04,7.57-6.73c6.85-18,14.17-35.83,20.63-53.97
	c3.55-9.96,5.16-20.62,8.69-30.59c2.98-8.41,7.09-16.5,11.43-24.33c2.78-5.01,7.06-5.94,11.99-4.21s7.62,5.5,6.88,10.73
	c-0.29,2.01-1.79,3.99-3.14,5.67c-2.22,2.77-4.63,5.43-7.21,7.87c-8.59,8.13-8.83,19.58-12.3,29.79
	c-3.4,10.01-7.14,19.95-11.39,29.62c-3.99,9.07-8.29,17.95-10.78,27.71c1.55,0.73,2.45,1.57,3.21,1.46
	c22.04-3.05,44.13-5.8,66.07-9.48c10.36-1.73,20.32-5.77,30.66-7.76c6.01-1.16,12.44-0.74,18.59-0.11c1.66,0.17,3.93,3.53,4.25,5.67
	c0.54,3.6-0.23,7.73-4.64,8.82c-6.12,1.51-12.39,2.45-18.59,3.62c-13.39,2.52-26.72,5.46-40.19,7.42c-13.81,2-27.77,2.97-41.65,4.52
	c-5.26,0.59-10.8,0.74-15.61,2.62c-4.07,1.6-8.54,4.7-10.61,8.39C279.27,296.53,276,305.58,271.71,315.35L271.71,315.35z"/>
<path d="M-523.76-1960.79c-1.23,1-1.97,1.94-2.92,2.24c-0.45,0.14-1.28-0.92-1.94-1.43c0.69-0.85,1.26-1.89,2.13-2.45
	C-526.19-1962.62-525.13-1961.64-523.76-1960.79z"/>
</svg>
