<?xml version="1.0" encoding="utf-8"?>
<!-- Generator: Adobe Illustrator 23.1.1, SVG Export Plug-In . SVG Version: 6.00 Build 0)  -->
<svg version="1.1" id="Layer_1" xmlns="http://www.w3.org/2000/svg" xmlns:xlink="http://www.w3.org/1999/xlink" x="0px" y="0px"
	 viewBox="0 0 642.98 642.98" style="enable-background:new 0 0 642.98 642.98;" xml:space="preserve">
<path d="M-498.75-622.54c0-6.18,0-11.99,0-18.23c-2.96,0-5.26-0.41-7.36,0.07c-12.93,2.95-25.8,5.65-38.34,10.61
	c-16.01,6.33-33.03,10.09-49.55,15.19c-6.34,1.96-12.47,4.61-18.74,6.83c-2.82,1-5.69,2.09-8.62,2.45c-4.41,0.54-11.05-4.21-11.44-8
	c-0.53-5.14,3.54-6.91,7.23-8.28c6.85-2.55,13.86-4.69,20.85-6.85c18.09-5.59,36.53-10.23,54.2-16.91
	c14.77-5.58,29.67-9.52,45.26-11.13c5.36-0.55,7.65-3.44,7.76-8.49c0.08-3.63,0.02-7.27,0.02-11.51c-2.62-0.26-4.93-1.04-6.98-0.59
	c-19.11,4.16-38.28,8.12-57.21,13c-10.55,2.72-20.68,7.07-31.01,10.68c-1.87,0.65-3.72,1.78-5.61,1.83
	c-4.23,0.12-8.02-1.25-9.48-5.74c-1.48-4.56,0.56-7.81,4.62-9.8c2.68-1.31,5.55-2.22,8.31-3.36c3.6-1.48,7.17-3.02,12.5-5.27
	c-9.39-6.09-12.42-14.24-13.98-23.03c-1.03-5.81-1.75-11.69-2.24-17.57c-0.39-4.67,2.74-7.26,6.59-9.03
	c3.73-1.71,6.32,0.23,8.69,2.87c0.85,0.94,1.93,1.67,3.11,2.66c10.2-3.42,20.16-6.95,30.24-10.09c8.84-2.76,17.79-5.19,26.74-7.57
	c5.45-1.45,10.96-2.74,16.5-3.78c11.17-2.08,13.36-4.48,13.7-15.51c0.18-5.66,0.71-11.31,0.73-16.96c0.02-6.39-1.75-7.83-7.84-6.54
	c-3.57,0.76-7.03,2.05-10.57,3c-15.05,4.08-30.1,8.16-45.17,12.19c-6.38,1.7-12.79,3.31-19.2,4.89c-2.25,0.55-4.57,1.39-6.81,1.25
	c-4.05-0.26-6.85-2.79-7.64-6.73c-0.71-3.56,1.86-5.39,4.82-6.65c9.5-4.03,18.93-7.98,29.54-8.6c6.58-0.39,13.21-1.77,19.58-3.55
	c12.17-3.41,24.04-7.92,36.29-10.98c6.36-1.59,8.14-5.04,7.71-10.61c-0.88-11.56-2.03-23.1-2.89-34.67
	c-0.27-3.57-0.8-7.46,0.27-10.71c2.43-7.4,10.46-8.96,15.89-3.35c3.83,3.95,5.96,8.74,5.61,14.47c-0.58,9.27-1.06,18.55-1.51,27.83
	c-0.14,2.89-0.02,5.78-0.02,9.57c5.03-0.57,8.84-1.08,12.67-1.43c4.44-0.4,8.04,1.12,9.46,5.57c1.07,3.36-2.56,7.94-7.21,9.31
	c-2.86,0.85-5.84,1.34-8.79,1.81c-4.99,0.78-7.83,3.67-8.16,8.62c-0.59,8.88-0.91,17.78-1.41,28c4.31,0.09,7.85,0.57,11.28,0.14
	c8.55-1.07,17.02-3.26,25.59-3.69c10.26-0.51,20.68-0.44,30.85,0.83c9.56,1.2,13.21,11.57,6.52,18.92
	c-7.54,8.28-16.45,15.33-24.82,22.85c-1.9,1.71-4.02,3.2-6.46,5.12c1.7,2.45,3.08,4.22,4.22,6.13c2.27,3.81,0.6,7.04-1.83,10.02
	c-2.34,2.87-5.38,4.38-8.75,2.2c-4.16-2.7-8.23-1.77-12.48-0.78c-3.88,0.9-7.8,1.66-11.69,2.51c-14.32,3.14-17.45,8.31-14.35,23.84
	c0.9,0.14,2.19,0.77,2.76,0.38c8.49-5.88,18.16-5.06,27.74-5.31c14.25-0.37,28.48-1.35,42.73-1.68c5.28-0.12,10.66,0.49,15.86,1.47
	c4.71,0.88,6.59,4.74,5.31,10.08c-1,4.2-2.32,8.35-3.84,12.39c-4.67,12.45-9.32,24.92-14.38,37.22c-1.94,4.7-4.99,8.93-8.12,14.41
	c4.21,1.03,7.22,1.23,9.63,2.53c2.08,1.13,4.9,3.57,4.85,5.34c-0.08,2.45-2.28,5.08-4.13,7.13c-0.94,1.04-3.17,0.8-4.67,1.46
	c-8.04,3.57-17.9,2.49-24.58,9.7c-0.95,1.02-3.07,1.16-4.69,1.32c-13.87,1.38-27.75,2.58-41.61,4.03c-6.24,0.65-7.88,2.39-8.55,8.94
	c-0.44,4.3-0.21,8.66-0.47,12.97c-2.34,38.52-4.77,77.04-7.06,115.56c-0.67,11.29-0.43,22.65-1.59,33.88
	c-0.91,8.8-2.57,17.7-5.34,26.07c-2.72,8.23-9.18,14.09-17.77,16.2c-15.34,3.76-30.48,5.19-45.96-1.17
	c-12.42-5.1-24.4-10.35-34.59-19.31c-7.94-6.97-13.66-15.41-17.96-24.89c-1.16-2.55-3.31-5.94,0.33-7.97
	c3.65-2.03,6.14,0.91,8.39,3.48c5.22,5.97,10.11,12.27,15.78,17.77c6.52,6.32,14.29,10.82,23.41,12.68c2.25,0.46,4.6,1.22,6.5,2.47
	c9.87,6.5,20.68,4.74,31,2.74c11.82-2.29,19.14-12.07,20.06-25.05c1.02-14.27,1.3-28.6,2.27-42.87c2.06-30.17,4.61-60.31,6.45-90.5
	c0.74-12.14,0.12-24.36,0.12-37.12c-2.38,0.23-4.65,0.27-6.83,0.71c-11.4,2.29-22.91,4.19-34.15,7.15
	c-16.7,4.39-33.2,9.53-49.78,14.37c-6.36,1.86-12.66,3.95-19.08,5.56c-2.16,0.54-4.68,0.22-6.91-0.28c-5.03-1.13-9.09-5.33-9.39-9.2
	c-0.31-4.01,2.9-7.13,9.17-8.89c1.28-0.36,2.58-0.74,3.89-0.88c21.33-2.23,41.43-9.34,61.86-15.28c8.55-2.48,17.65-3,26.38-4.91
	c7.44-1.63,14.71-4,22.06-6.01c3.27-0.89,5.26-2.85,5.29-6.34c0.05-6.91,0.02-13.83,0.02-21.53c-2.96,0.22-5.26-0.03-7.28,0.6
	c-22.2,6.88-45.04,11.83-66.16,22.02c-2.91,1.4-6.33,2.08-9.58,2.37c-4.48,0.41-7.87-2.04-9.26-6.16c-1.52-4.52,1.99-6.39,5.35-8.24
	c15.58-8.6,32.63-13.01,49.58-17.76C-524.07-615.14-511.69-618.8-498.75-622.54z M-497.06-727.79c-3.55,0.58-6.14,0.74-8.58,1.43
	c-22.02,6.24-44.04,12.47-65.97,19.01c-3.18,0.95-5.87,3.52-9.1,5.53c4.59,7.54,8.53,14.02,12.99,21.36c9.6-1.31,19.5-2.1,29.16-4.1
	c12.32-2.56,24.48-5.95,36.6-9.34c2.12-0.59,5.24-2.85,5.35-4.51C-495.94-707.9-495.6-717.47-497.06-727.79z M-424.16-608.93
	c-1.64-1.22-3.89-2.04-4.65-3.59c-3.28-6.73-9.07-6.06-14.66-5.11c-7.84,1.33-15.76,2.68-23.32,5.07
	c-17.82,5.64-17.74,5.89-16.89,24.9c0.38,8.49,1.02,9.7,9.22,9.08c8.89-0.67,17.64-3.03,26.53-4c12.53-1.37,20.03-7.75,22.31-20.2
	C-425.25-604.74-424.7-606.65-424.16-608.93z M-480.62-625.2c22-6.94,44.12-12.5,67.18-1.1c3.11-9.28,5.78-17.26,8.59-25.66
	c-2.08-0.63-3.3-1.37-4.49-1.31c-12.54,0.65-25.09,1.17-37.6,2.25c-9.54,0.83-19.07,2.12-28.48,3.84c-2.43,0.45-5.6,2.9-6.37,5.14
	C-483.45-637.13-484.8-631.75-480.62-625.2z M-428.58-738.83c-16.12,1.13-30.26,1.9-44.33,3.35c-2.25,0.23-5.79,3.38-5.98,5.43
	c-0.84,8.85-0.9,17.8-0.69,26.71c0.07,2.97,2.64,4.62,5.82,3.41c2.46-0.93,4.94-2.01,7.12-3.45c8.02-5.27,16.22-10.34,23.78-16.23
	C-437.25-723.97-432.11-729.14-428.58-738.83z"/>
<path d="M558.27-1240.14c23.06,8.12,39.78,22.82,57.2,36.52c14.35,11.28,29.08,22.06,43.5,33.25c7.87,6.1,15.25,12.83,23.18,18.85
	c7.93,6.02,16.42,11.3,24.39,17.25c13.58,10.14,26.91,20.6,40.42,30.82c5.26,3.98,5.93,10.82,1.09,15.24
	c-3.83,3.49-7.28,1.85-10.54-1.15c-5.13-4.74-10.04-9.77-15.52-14.07c-18.06-14.16-36.31-28.07-54.52-42.04
	c-23.19-17.79-46.38-35.59-69.63-53.31c-8.98-6.84-17.93-13.74-27.25-20.09c-11.68-7.96-18.77-5.04-23.29,8.18
	c-5.59,16.36-11.92,32.47-17.66,48.78c-7.28,20.67-14.34,41.43-21.4,62.18c-1.7,5.01-3.21,9.96-1.5,15.54
	c1.79,5.82-0.83,11.09-3.92,15.98c-2.67,4.24-7.01,5.41-11.32,4.52c-4.55-0.94-6.15-5.33-5.79-9.39c0.55-6.22,1.32-12.64,3.4-18.48
	c5.45-15.26,11.87-30.16,17.48-45.36c3.09-8.37,5.03-17.16,7.97-25.59c5.23-15.01,10.61-29.98,16.32-44.81
	c6.78-17.62,14.01-35.07,20.96-52.62c0.81-2.04,1.07-4.3,1.87-7.66c-4.44,0.84-7.96,1.18-11.28,2.2
	c-19.04,5.83-38,11.93-57.07,17.67c-4.39,1.32-9.09,2.08-13.67,2.15c-4.16,0.06-6.65-3.02-6.92-7.13c-0.25-3.87,2.18-5.99,5.77-7.06
	c14.27-4.24,28.48-8.72,42.8-12.78c14.34-4.06,28.74-7.98,43.25-11.39c4.24-1,6.17-3.04,7.57-6.73c6.85-18,14.17-35.83,20.63-53.97
	c3.55-9.96,5.16-20.62,8.69-30.59c2.98-8.41,7.09-16.5,11.43-24.33c2.78-5.01,7.06-5.94,11.99-4.21c4.93,1.73,7.62,5.5,6.88,10.73
	c-0.29,2.01-1.79,3.99-3.14,5.67c-2.22,2.77-4.63,5.43-7.21,7.87c-8.59,8.13-8.83,19.58-12.3,29.79
	c-3.4,10.01-7.14,19.95-11.39,29.62c-3.99,9.07-8.29,17.95-10.78,27.71c1.55,0.73,2.45,1.57,3.21,1.46
	c22.04-3.05,44.13-5.8,66.07-9.48c10.36-1.73,20.32-5.77,30.66-7.76c6.01-1.16,12.44-0.74,18.59-0.11c1.66,0.17,3.93,3.53,4.25,5.67
	c0.54,3.6-0.23,7.73-4.64,8.82c-6.12,1.51-12.39,2.45-18.59,3.62c-13.39,2.52-26.72,5.46-40.19,7.42c-13.81,2-27.77,2.97-41.65,4.52
	c-5.26,0.59-10.8,0.74-15.61,2.62c-4.07,1.6-8.54,4.7-10.61,8.39C565.83-1258.97,562.56-1249.91,558.27-1240.14z"/>
<path d="M289.63-1168.65c-1.6,2.65-3.18,4.36-3.74,6.35c-8.42,30.17-26.26,54.88-45.2,79.06c-6.36,8.12-14.32,13.34-23.25,18.17
	c-11.5,6.21-28.82-0.15-33.38-12.05c-4.36-11.37-7.04-22.6-7.69-34.69c-1.56-29.17-3.51-58.32-5.73-87.45
	c-0.47-6.18-2.33-12.37-4.34-18.29c-2.27-6.68-1.45-12.17,3.07-13.69c5.36-1.8,11.32,1.71,12.83,8.03
	c2.84,11.9,4.97,23.91,5.71,36.19c1.71,28.53,3.39,57.06,5.91,85.52c0.55,6.26,3.72,12.73,7.16,18.18
	c3.64,5.77,8.75,6.05,14.78,2.49c10.61-6.28,17.41-16.09,24.04-26.08c4.95-7.45,10.57-14.51,14.99-22.26
	c5.07-8.9,9.4-18.26,13.58-27.63c3.09-6.94,5.49-14.2,8.07-21.36c5.39-14.96,12.15-29.47,14.5-45.42c0.33-2.21,1.27-4.72,2.78-6.25
	c1.9-1.94,4.86-4.42,7.03-4.14c3.53,0.46,6.67,3.2,6.6,7.57c-0.05,2.98-0.49,5.96-0.86,8.93c-2.97,23.63-1.71,47.02,2.3,70.5
	c2.17,12.69,7.27,23.92,12.12,35.58c5.78,13.89,24.32,15.63,34.59,6.86c1.26-1.07,2.28-2.92,3.67-3.23c2.4-0.53,6.27-1.11,7.23,0.12
	c1.51,1.94,2.51,6.39,1.32,7.97c-5.41,7.2-11.63,14.41-21.5,14.54c-7.89,0.1-15.91-1-23.66-2.58c-7.08-1.44-10.33-7.59-13.73-13.5
	c-11.36-19.76-15.8-41.37-17.93-63.68C290.8-1165.78,290.32-1166.63,289.63-1168.65z"/>
<path d="M234.53,396.26c1.45,1.26,3.1,2.07,3.77,3.37c9.48,18.57,24.74,31.52,40.65,44.4c11.74,9.5,23.93,17.73,38.21,25.14
	c0.6-2.77,1.52-5.14,1.58-7.53c0.56-24.26,1.53-48.53,1.28-72.78c-0.25-23.57-2.15-47.12-2.66-70.7
	c-0.41-19.25,0.82-38.54,0.16-57.77c-0.89-25.89-2.96-51.74-4.38-77.61c-0.43-7.92-0.76-15.89-0.45-23.81
	c0.23-5.84,3.53-8.87,7.7-8.48c3.88,0.36,7.39,4.14,7.49,9.19c0.76,37.53,6.88,74.85,4.56,112.48c-1.29,20.93,0.64,41.76,1.41,62.64
	c0.83,22.53,1.07,45.08,1.46,67.63c0.44,25.25,0.77,50.49,1.14,75.74c0.02,1.33,0.04,2.67-0.08,3.99
	c-0.91,10.41-5.29,12.77-14.32,7.92c-19.1-10.26-37.01-22.1-52.21-37.79c-3.43-3.55-7.73-6.27-11.71-9.28
	c-12.93-9.78-21.26-22.68-26.01-38.05C231.23,402.06,230.1,399.21,234.53,396.26z"/>
<path d="M268.2,313.35c-1.46,2.38-2.18,4.31-3.52,5.57c-2.41,2.26-5.08,4.31-7.87,6.09c-7.96,5.09-14.36,11.35-19.07,19.81
	c-2.82,5.06-7.69,9.07-11.98,13.21c-18.42,17.76-37.04,35.31-55.41,53.13c-3.8,3.68-6.72,8.25-10.25,12.23
	c-3.82,4.31-7.01,4.79-10.26,1.95c-3.7-3.24-4.72-7.76-1.58-11.52c6.12-7.35,11.3-15.33,19.14-21.49
	c9.33-7.34,17.05-16.72,25.48-25.21c2.81-2.83,5.3-6.17,8.56-8.35c11-7.35,18.29-18.17,27.13-27.58
	c7.47-7.96,15.64-15.34,24.11-22.22c2.27-1.85,6.91-1.67,10.2-1.05C264.86,308.28,266.32,311.32,268.2,313.35z"/>
<path d="M378.26,299.53c11.3-5.35,18.02-2.11,24.81,4.82c9.27,9.47,19.67,17.83,29.51,26.75c1.96,1.77,4.18,3.64,5.24,5.95
	c8.77,18.97,24.39,32.07,39.22,45.77c4.04,3.73,9.26,6.2,14.03,9.11c5.73,3.5,7.29,10.5,3.28,15.27c-3.27,3.9-8.92,4.24-13.25,0.02
	c-21.13-20.6-44.08-39.58-59.05-65.75c-1.28-2.24-3.31-4.18-5.31-5.87c-11.17-9.4-22.54-18.56-33.58-28.11
	C380.99,305.63,379.98,302.43,378.26,299.53z"/>
<path d="M-523.76-1960.79c-1.23,1-1.97,1.94-2.92,2.24c-0.45,0.14-1.28-0.92-1.94-1.43c0.69-0.85,1.26-1.89,2.13-2.45
	C-526.19-1962.62-525.13-1961.64-523.76-1960.79z"/>
<path d="M42.33-1274.91c7.56,0,15.12-0.13,22.68,0.03c10.34,0.22,20.39,1.54,30.14,5.65c18.5,7.78,26.83,22.42,27.6,41.33
	c0.86,21.31-5.18,41.55-13.58,60.89c-8.47,19.5-17.36,38.86-26.99,57.82c-7.01,13.8-17.7,24.8-30.4,33.84
	c-5.09,3.62-9.58,8.08-14.36,12.14c-1.77,1.5-3.41,3.33-5.45,4.31c-12.85,6.15-25.5,12.9-38.8,17.84
	c-9.02,3.35-18.84,3.19-27.88-2.12c-7.09-4.17-10.1-10.21-9.88-18.19c0.34-12.31,0.52-24.62,1.02-36.92
	c0.89-21.57,1.88-43.14,2.98-64.7c1.96-38.2,4.24-76.39,5.99-114.6c0.94-20.6,1.28-41.24,1.47-61.86
	c0.17-18.59-0.19-37.19-0.4-55.79c-0.05-3.93-0.49-7.86-0.79-12.24c-2.02,0.38-3.33,0.49-4.55,0.87c-5.26,1.64-9.11,0.04-11.61-4.85
	c-2.76-5.41-2.32-10.98,1.47-14.78c2.58-2.58,5.34-5.03,8.26-7.22c3.25-2.44,6.17-4.45,5.79-9.5c-0.32-4.31,2.93-5.83,6.83-3.86
	c7.17,3.62,13.38,0.39,19.94-2.03c13.38-4.94,26.61-10.85,40.45-13.79c13.25-2.82,27.25-2.02,40.58,1.52
	c8.31,2.2,16.55,5.04,24.38,8.58c15.52,7.02,23.83,19.4,25.33,36.46c1.94,22.09-6.77,41.19-17.43,59.34
	c-8.38,14.28-17.78,28.12-28.08,41.07c-9.46,11.9-20.73,22.37-31.19,33.48c-1.52,1.61-2.95,3.3-4.43,4.95
	C41.71-1276.47,42.02-1275.69,42.33-1274.91z M-25.14-1054.35c7.23,1.62,12.97,0.01,18.81-2.84c17.72-8.64,34.39-18.72,48.92-32.26
	c11.9-11.09,24.61-21.14,30.43-37.45c3.77-10.56,9.15-20.65,14.73-30.42c8.19-14.32,13.79-29.57,17.39-45.48
	c1.8-8,2.51-16.5,2.05-24.68c-0.7-12.62-9.15-30.23-28.8-31.93c-12.58-1.09-25.24-1.23-37.86-1.85c-10.11-0.5-19.83,0.52-28.63,6.25
	c-1.88,1.23-4.35,1.66-6.62,2.16c-5.85,1.29-10.85-1.01-12.41-5.54c-1.42-4.11,0.84-7.43,6.73-10.62
	c6.12-3.32,12.47-6.4,18.08-10.46c18.42-13.34,33.44-30.37,48.89-46.82c13.98-14.88,23.63-32.77,32.8-50.96
	c4.92-9.77,7.47-19.75,8.55-30.47c1.92-19.08-8.24-30.85-22.74-35.33c-10.99-3.39-22.68-4.96-34.18-6.14
	c-6.43-0.66-13.33,0.3-19.63,1.98c-11.54,3.08-22.91,6.91-34.15,11c-17.06,6.22-17.44,8.03-16.16,26.32
	c1.36,19.55,2.5,39.19,2.07,58.76c-0.83,38.57-2.88,77.11-4.29,115.67c-0.79,21.6-0.74,43.25-2.13,64.81
	c-1.88,29.19-4.93,58.31-3.74,87.61C-26.64-1073.52-25.79-1064.02-25.14-1054.35z"/>
</svg>
