<?xml version="1.0" encoding="utf-8"?>
<!-- Generator: Adobe Illustrator 23.1.1, SVG Export Plug-In . SVG Version: 6.00 Build 0)  -->
<svg version="1.1" id="Layer_1" xmlns="http://www.w3.org/2000/svg" xmlns:xlink="http://www.w3.org/1999/xlink" x="0px" y="0px"
	 viewBox="0 0 642.98 642.98" style="enable-background:new 0 0 642.98 642.98;" xml:space="preserve">
<path d="M234.53,396.26c1.45,1.26,3.1,2.07,3.77,3.37c9.48,18.57,24.74,31.52,40.65,44.4c11.74,9.5,23.93,17.73,38.21,25.14
	c0.6-2.77,1.52-5.14,1.58-7.53c0.56-24.26,1.53-48.53,1.28-72.78c-0.25-23.57-2.15-47.12-2.66-70.7
	c-0.41-19.25,0.82-38.54,0.16-57.77c-0.89-25.89-2.96-51.74-4.38-77.61c-0.43-7.92-0.76-15.89-0.45-23.81
	c0.23-5.84,3.53-8.87,7.7-8.48c3.88,0.36,7.39,4.14,7.49,9.19c0.76,37.53,6.88,74.85,4.56,112.48c-1.29,20.93,0.64,41.76,1.41,62.64
	c0.83,22.53,1.07,45.08,1.46,67.63c0.44,25.25,0.77,50.49,1.14,75.74c0.02,1.33,0.04,2.67-0.08,3.99
	c-0.91,10.41-5.29,12.77-14.32,7.92c-19.1-10.26-37.01-22.1-52.21-37.79c-3.43-3.55-7.73-6.27-11.71-9.28
	c-12.93-9.78-21.26-22.68-26.01-38.05C231.23,402.06,230.1,399.21,234.53,396.26L234.53,396.26z"/>
<path d="M268.2,313.35c-1.46,2.38-2.18,4.31-3.52,5.57c-2.41,2.26-5.08,4.31-7.87,6.09c-7.96,5.09-14.36,11.35-19.07,19.81
	c-2.82,5.06-7.69,9.07-11.98,13.21c-18.42,17.76-37.04,35.31-55.41,53.13c-3.8,3.68-6.72,8.25-10.25,12.23
	c-3.82,4.31-7.01,4.79-10.26,1.95c-3.7-3.24-4.72-7.76-1.58-11.52c6.12-7.35,11.3-15.33,19.14-21.49
	c9.33-7.34,17.05-16.72,25.48-25.21c2.81-2.83,5.3-6.17,8.56-8.35c11-7.35,18.29-18.17,27.13-27.58
	c7.47-7.96,15.64-15.34,24.11-22.22c2.27-1.85,6.91-1.67,10.2-1.05C264.86,308.28,266.32,311.32,268.2,313.35L268.2,313.35z"/>
<path d="M378.26,299.53c11.3-5.35,18.02-2.11,24.81,4.82c9.27,9.47,19.67,17.83,29.51,26.75c1.96,1.77,4.18,3.64,5.24,5.95
	c8.77,18.97,24.39,32.07,39.22,45.77c4.04,3.73,9.26,6.2,14.03,9.11c5.73,3.5,7.29,10.5,3.28,15.27c-3.27,3.9-8.92,4.24-13.25,0.02
	c-21.13-20.6-44.08-39.58-59.05-65.75c-1.28-2.24-3.31-4.18-5.31-5.87c-11.17-9.4-22.54-18.56-33.58-28.11
	C380.99,305.63,379.98,302.43,378.26,299.53L378.26,299.53z"/>
<path d="M-523.76-1960.79c-1.23,1-1.97,1.94-2.92,2.24c-0.45,0.14-1.28-0.92-1.94-1.43c0.69-0.85,1.26-1.89,2.13-2.45
	C-526.19-1962.62-525.13-1961.64-523.76-1960.79z"/>
</svg>
