<svg enable-background="new 0 0 1332.44 206.99" viewBox="0 0 1332.44 206.99" xmlns="http://www.w3.org/2000/svg"><path d="m1266.35 66.17c3.82-1.27 7.13-3.03 10.58-3.4 8.29-.87 13.21-5.52 16.4-12.73.8-1.81 1.84-3.51 3.01-5.7-3.13-3.31-9.96 1.01-11.72-6.37 3.18-.8 6.19-1.89 9.3-2.27 6.24-.77 10.02-3.73 12.21-9.88 2.28-6.4 4.82-12.95 9.97-18.41 6.25 4.53 2.49 8.44.57 12.27-2.07 4.13-4.24 8.2-6.79 13.12 3.07 1.02 5.59 1.47 7.65 2.68 1.12.66 2.25 2.76 2 3.92-.25 1.18-2.16 2.03-3.39 2.96-.21.16-.65.02-.98.01-3.18-.09-7.65-1.54-9.27.01-3.87 3.69-6.39 8.8-10.15 14.37 8.18 1.13 14.79-3.64 20.88.49.98 4.04-1.32 4.85-4.31 5.13-5.62.52-11.24.97-16.83 1.71-4.96.65-7.57 3.52-7.49 9.44 10.19.45 20.02.88 30.31 1.33-2.22 7.9-8.71 5.58-13.73 5.93-5.27.37-10.58.08-16.38.08-.86 2.37-1.72 4.76-2.65 7.34 1.33.6 2.17 1.3 3.03 1.32 11.62.22 23.25.2 34.86.55 7.57.23 9.43 3.2 8.96 10.89-1.72 28.22-3.21 56.45-4.65 84.69-.17 3.28.98 6.63.76 9.9-.14 2.08-1.18 4.97-2.74 5.85-1.47.82-4.86.21-6.17-1.05-4.21-4.06-10.91-6.8-9.72-15.36 3.29 1.05 6 1.91 9.96 3.17 1.22-29.81 2.42-59.15 3.67-89.71-11.11-.73-21.26-1.64-31.42-1.95-5.32-.16-8.34 2.9-9.21 8.48-2.04 13.12-4.46 26.19-6.99 40.78 14.48-1.05 28.29-4.28 43.87-1.95-7.65 7.02-16.03 4.99-23.33 6.62-7.38 1.65-14.83 3-22.46 4.52-1.44 7.8-2.54 14.68-4.03 21.48-.99 4.5-2.35 8.96-4.01 13.26-.39 1.02-2.89 2.03-4.06 1.71-1.15-.31-2.42-2.23-2.6-3.59-.25-1.89.38-3.92.78-5.86 4.26-20.15 8.51-40.3 12.85-60.44 1.06-4.93.24-9.13-3.42-12.82-4.53-4.56-7.77-10.8-16.23-11.69-.49 3.97-1.01 7.49-1.35 11.04-2.06 21.52-4.04 43.05-6.17 64.57-.29 2.96-1.05 5.93-2.03 8.74-1.34 3.88-3.17 7.65-8.39 6.72-4.76-.85-6.43-4.29-6.55-8.7-.03-.94.47-1.89.88-3.39 2.21.18 4.4.36 6.97.57.8-2.4 2.02-4.84 2.4-7.4 1.22-8.22 2.28-16.48 3.12-24.74 3.42-33.83 3.9-67.77 3.43-101.74-.07-5.21-1.01-10.68 3.23-14.89 5.5-.06 4.83 3.66 4.78 6.95-.2 14.64-.44 29.28-.59 43.93-.03 3.28.26 6.56.34 8.4 7.53 5.19 13.97 9.63 20.49 14.13 1.8-5.3 5.16-11.19 2.85-18.91-4.05 0-8.09 0-12.52 0 1.37-9.92 13.24-4.27 15.79-12.35-4.35-1.51-10.04 2.42-13.57-3.76z"/><path d="m973.14 133.33c4.26-.33 8.11-.62 11.97-.92.32 5.74.32 5.74-13.22 8.74-1 10.93-2.05 22.33-3.07 33.45 3.78 2.23 6.48 3.83 10.73 6.35-3.74 2.35-6.28 3.95-9.89 6.21 0 3.57.15 7.84-.04 12.09-.26 5.88-2.16 7.88-7.88 7.73-9.27-.24-18.07-2.02-24.47-10.7 7.45 1.05 14.9 2.09 23.37 3.28.29-5.91.51-10.4.78-16.03-4.28-.31-7.81-.98-11.27-.75-13.59.92-27.17 2.17-40.75 3.2-3.31.25-6.69.47-9.95.05-6.73-.87-9.25-5.13-6.51-11.35 1.87-4.23 4.76-7.99 6.89-12.13 1.78-3.47 3.12-7.17 4.99-11.56-8.4-1.22-15.32.87-22.05 3.14-6.72 2.26-13.17 5.31-20.66 8.4.16-7.04 4.44-9.82 8.91-11.42 7.8-2.78 15.88-4.75 23.89-6.9 2.88-.77 5.86-1.22 8.82-1.61 4.39-.58 7.16-2.76 8.71-7.03 2.37-6.56 5.37-12.88 7.69-19.46 1.75-4.96 3.76-8.34 9.82-9.59 11.34-2.32 22.28-6.55 33.6-9 8.21-1.78 9.36-.41 9.55 7.8.2 8.92.04 17.85.04 28.01zm-73.46 44.95c4.36.39 6.61.87 8.83.73 8.28-.52 16.54-1.27 24.82-1.88 7.95-.58 15.92-.94 23.84-1.78 1.5-.16 3.65-1.84 4.05-3.23.83-2.86-1.35-4.22-4-4.31-3.64-.13-7.3-.07-10.95.03-3.65.09-7.32.65-10.94.4-5.18-.36-7.09-3.39-5.17-8.18 1.23-3.05 3.33-5.75 4.77-8.73.9-1.86 1.29-3.96 2.28-7.19-7.17 1.03-13.08 1.61-18.85 2.84-2.02.43-4.46 2.08-5.39 3.86-4.41 8.48-8.37 17.18-13.29 27.44zm41.67-41.77c0-6.94-.26-12.82.16-18.64.13-1.77 2.1-4.73 3.32-4.78 1.73-.07 4.31 1.68 5.12 3.34.92 1.88.3 4.52.31 6.83.02 3.85.01 7.7.01 12.11 2.27 0 3.87.06 5.47-.01 8.49-.38 9.13-.83 9.45-9.13.26-6.89.05-13.79.05-22.24-13 2.7-24.73 3.91-34.6 11.4-1.03.78-2.05 1.81-2.61 2.96-3.14 6.49-6.15 13.04-10.03 21.37 8.51-1.17 15.21-2.09 23.35-3.21zm20.31 23.84c1.6-5.72 3.35-11.6.49-17.61-16.19-1.43-20.25 1.54-23.52 17.61z"/><path d="m473.48 99.38c6.61 3.39 14.46-2.39 20.41 4.44-5.43 5.86-13.56.35-19.11 5.78.03 7.3-.96 15.23 5.7 20.96-4.07 12.67.63 24.91.15 38.49 3.65-1.13 6.02-1.91 8.43-2.6 1.85-.53 3.99-1.72 5.55-1.22 1.88.61 3.85 2.45 4.64 4.26.35.81-1.79 3.54-3.31 4.16-3.33 1.36-6.98 1.92-10.11 2.71-.65 1.07-1.22 1.59-1.3 2.19-1.51 11.87-3.31 12.85-13.25 5.88-4.36-3.06-8.66-4.48-13.88-4.31-6.65.21-13.4.61-19.95-.24-6.82-.88-13.75-2.46-20.05-5.12-3.1-1.31-6.51-5.54-6.96-8.83-1.47-10.81-1.8-21.8-2.15-32.73-.06-1.71 2.04-3.49 3.15-5.24.73.08 1.46.16 2.19.24.54 2.29 1.41 4.56 1.55 6.87.39 6.63.15 13.31.77 19.91 1.13 12 5.68 17.1 17.56 17.34 9.14.19 18.43 2.15 27.64-1.15 3.37-1.21 7.53-.19 12.52-.19-1.03-11.72-1.98-22.48-3.03-34.38-14.69.55-27.52 6.06-41.02 9.15-2.45-4.77.23-6.69 3.58-7.67 7.97-2.35 16.03-4.4 24.07-6.48 3.2-.83 6.45-1.44 9.93-2.2 2.58-6.72 1.05-12.99-1.37-20.24-4.99.6-9.89.92-14.69 1.83-5.71 1.08-10.71 2.86-17.19.55-4.86-1.74-11.5 2.07-17.42 2.59-9.81.86-13.8 5.85-15.72 15.52-3.04 15.3-7.97 30.22-12.28 45.25-.86 3-2.49 5.78-4.06 9.33-4.91-3.93-2.8-7.4-1.97-10.7 3.97-15.81 7.98-31.61 11.92-47.43.47-1.88.6-3.84 1.1-7.15-6.29.55-11.9 1.04-17.86 1.56-.74-5.87 2.85-7.12 6.32-7.81 4.21-.83 8.53-.66 11.36-5.01.68-1.04 4.12-1.52 5.33-.75 5.25 3.34 10.32 1.48 15.4.17 10.99-2.84 21.97-4.78 33.47-3.77 4.78.42 9.73-1.13 14.6-1.79 2.5-9.71-4.29-19.79 3.99-29.43 6.06 8.91 1.29 18.94 5.35 27.26z"/><path d="m254.73 119.71c-7.2 1.62-12.08 2.39-16.74 3.87-4.65 1.48-9.07 3.67-13.31 5.43-3.64-2.74-2.78-5.3-.1-6.71 4.66-2.45 9.6-4.46 14.57-6.24 4.62-1.66 9.44-2.77 13.45-3.92 3.48-6.45-3.57-16.76 9.57-17.89.2-4.82.61-9.72.56-14.62-.14-13.31-.5-26.62-.7-39.93-.03-2.31.02-4.7.57-6.92.24-.98 1.94-2.42 2.72-2.27 1.36.26 3 1.33 3.64 2.53.72 1.35.61 3.23.59 4.87-.23 18.62-.49 37.25-.77 55.87-.11 7.7-.14 7.7-7.95 9.22.21 2.19.43 4.42.72 7.43h22.02c.48-1.92 1.59-4.68 1.8-7.51 1.61-21.58 3.25-43.15.83-64.8-.37-3.32-1.93-7.39 2.57-9.94 5.56 1.56 5.16 6.45 5.15 10.47-.04 16.96-.29 33.92-.83 50.88-.19 5.95-1.07 11.93-2.3 17.76-.79 3.74-2.8 7.22-4.27 10.83-8.39 0-15.82 0-24.02 0-1.57 16.17-3.05 31.54-4.62 47.65 7.81.25 16.08.26 24.31.84 10.94.77 21.85 1.91 32.75 3.04 2.29.24 4.54 1.02 6.75 1.74 3.29 1.07 4.04 3.83 2.54 6.33-.91 1.51-3.87 3.16-5.38 2.75-39.61-10.63-79.61-7.69-119.6-3.47-5.85.62-11.44 3.45-17.26 4.78-1.85.42-5.25-.1-5.88-1.28-1.66-3.11 1.04-4.49 3.68-5.64 12.15-5.32 25.23-5.75 38.08-7.21 7.6-.87 15.26-1.11 22.9-1.61s10.75-2.2 11.65-9.52c1.41-11.45 1.52-23.04 2.31-36.81z"/><path d="m43.72 126.64c-12.39 14.98-23.61 29.47-39.92 38.49-.49.27-1.63-.61-3.8-1.5 17.51-15.13 32.54-31.39 45.19-51.91-12.88.08-22.48 7.03-34.21 6.21 2.5-8.08 9.28-7.7 14.53-9.45 5.32-1.78 10.81-3.04 16.73-4.68 0-2.14.12-4.07-.03-5.97-.16-1.94-.6-3.85-.99-6.2-8.5.04-16.17 4.93-24.92 2.95.1-6.39 4.57-6.99 8.68-7.96 4.13-.98 8.27-1.95 12.8-3.01 0-11.6 0-22.42 0-33.99-4.71 0-9.02 0-13.33 0-.24-.66-.48-1.32-.72-1.98 1.93-1.37 3.67-3.41 5.81-3.98 14.47-3.86 29.13-5.91 45.6-3.47-4.68 12.64-9.05 24.47-13.65 36.89 1.85.36 4.49.42 6.68 1.44 1.48.69 2.35 2.72 3.49 4.14-1.71 1.09-3.64 3.34-5.1 3.07-5.89-1.09-11.18-.05-17.27 3.11.33 3.96.68 8.14 1.12 13.38 3.45-.2 6.61-.35 9.78-.56 3.12-.21 7.37-2.05 7.75 3.05.33 4.48-3.79 3.49-6.63 3.76-2.92.27-5.82.68-9.28 1.09v13.45c5.83.86 11.52 1.05 16.77 2.65 5.91 1.81 11.59 4.6 17.06 7.54 3.57 1.92 4.16 5.56 2.92 10.73-6.03-3.96-10.98-8.3-16.73-10.66-5.69-2.34-12.21-2.68-19.59-4.13 0 4.19.14 7.44-.03 10.67-.42 7.95-.73 15.93-1.62 23.83-.34 3.08 1.14 9.05-4.52 7.9-5.03-1.03-1.77-6.12-1.71-9.44.18-9.63.6-19.25.74-28.88.01-1.77-.84-3.56-1.6-6.58zm20.95-79.09c-16.48-2.89-19.14-.96-19.92 13.66-.25 4.64-.52 9.31-.23 13.93.1 1.64 1.51 4.1 2.85 4.52 1.31.41 3.98-.83 4.87-2.14 6.14-9.12 9.8-19.26 12.43-29.97z"/><path d="m1113.12 56.36c13.53-3.83 25.01-8.35 38.75-7.14-3.49 20.4-14.97 35.84-25.21 52.27 16.38.7 17.4 2.39 11.54 17.39-3.02 7.74-5.57 15.7-9.14 23.17-3.14 6.58-1.82 11.41 3.59 15.63 10.89 8.49 18.22 21.46 32.51 25.74 1.05.32 2.32 2.68 2.09 3.81-.26 1.28-2.19 3.26-3.22 3.16-3.15-.32-6.83-.68-9.2-2.48-5.79-4.4-11.02-9.57-16.38-14.53-5.06-4.69-10.01-9.5-14.72-13.99-6.73 8.39-12.77 16.19-19.14 23.72-2.09 2.47-4.78 4.7-7.64 6.18-2.79 1.44-5.83 1.13-6.93-3.6 11.94-5.14 18.11-15.64 23.73-26.51 3.33-6.43 3.1-8.26-2.79-12.68-4.62-3.46-9.98-5.94-15.13-8.92 6.26-4.71 6.26-4.71 25.06 5.9 4.13-10.36 9.39-20.13 10.61-31.17-7.6-4.13-14.85 5.15-23.18-1.05 15.22-15.64 27.09-32.4 33.15-53.57-11.05-.82-20.01 2.66-28.46 7.12-2.39 1.26-3.73 5.26-4.69 8.27-1.2 3.77-1.29 7.88-2.33 11.71-.41 1.52-2.1 2.69-4.01 4.98-.8-2.45-1.62-3.64-1.47-4.7 1.83-13.14 3.76-26.27 5.81-39.38.24-1.55 1.12-3.23 2.22-4.34 1.03-1.05 3.53-2.33 4.01-1.92 1.26 1.09 2.49 3.06 2.44 4.64-.11 3.54-1.01 7.05-1.87 12.29z"/><path d="m600.4 43.17c7.16 2.2 7.16 6.39 7 10.31-.55 13.97-1.33 27.92-1.98 41.89-.12 2.57-.02 5.16-.02 8.93 8-1.15 15.39-2.2 22.24-3.19 5.76-7.44-1.18-17.08 5.8-24.17 8.01 6.15 2.99 14.61 5.3 22.84h20.61c.28.77.56 1.54.85 2.31-1.4 1.35-2.58 3.15-4.25 3.94-1.71.81-3.89.72-5.87.86-13.62.96-13.44.98-16.2 14.81-1.29 6.45-3.4 12.73-5.32 19.72 7.18 3.97 14.41 7.35 20.96 11.74 7.41 4.97 14.24 10.8 21.25 16.35 1.28 1.01 2.65 2.34 3.13 3.8.54 1.66.12 3.63.12 5.46-1.76-.22-3.64-.13-5.25-.75-1.12-.43-1.81-1.89-2.79-2.79-11.81-10.78-24.42-20.35-39.65-26.6-6.59 6-6.72 17.85-19.67 20.34 3.91-7.27 7.38-12.93 10.07-18.95 2.84-6.35 5.28-12.93 7.23-19.6 1.92-6.54 3-13.33 4.89-22.05-8.17 1.26-14.28 2.13-20.36 3.17-4.18.72-4.9 4.2-5.2 7.55-1.63 18.2-3.12 36.42-4.65 54.63-.33 3.96-.37 7.96-1.08 11.85-.21 1.15-2.23 2.7-3.46 2.74-1.27.04-3.48-1.34-3.73-2.45-.82-3.5-1.57-7.25-1.18-10.77 2.5-22.42 5.57-44.78 7.92-67.22 1.42-13.56 2.07-27.21 2.69-40.83.21-4.58-1.02-9.22-1.04-13.84 0-3.07.97-6.14 1.64-10.03z"/><path d="m817.47 173.16c6 .74 10.42 1.28 15.19 1.86 3.51-10.59 2.29-20.54 2.44-30.39.15-9.98.14-19.98.92-29.92.77-9.8 2.45-19.52 3.76-29.55-8.79-2.35-16.13.52-23.58.81-14.09.55-20.87 7.3-22.12 20.85-.3 3.23-1.34 6.4-1.74 8.2 12.91 14.09 25.03 27.18 36.91 40.49 1.27 1.42 2.2 4.81 1.4 6.07-1.9 2.99-4.9 1.48-6.74-.53-7.18-7.83-14.11-15.89-21.2-23.8-3.72-4.16-7.57-8.2-12.4-13.41-7.64 12.96-6.62 28.99-19.55 37.58 6.6-21.93 13.48-43.65 19.38-68.05-6.95 3.23-11.76 5.47-17.66 8.21.57-6.55 4.35-9.46 8.29-11.15 7.27-3.11 12.6-7.18 12.91-15.78.05-1.25.69-2.66 1.49-3.64.75-.92 2.34-2.14 3.1-1.88 1.31.46 3.02 1.82 3.22 3.03.47 2.81.15 5.76.15 9.31 10.88-1.72 21.62-3.28 32.3-5.14 14.71-2.56 16.46-1.53 13.35 12.88-5.76 26.63-5 53.54-5 80.46 0 2.66.5 5.46-.16 7.94-.52 1.96-2.39 4.93-3.82 5.03-4.19.28-8.49-.46-12.68-1.18-3.76-.65-6.54-2.73-8.16-8.3z"/><path d="m129.4 63.83c0 3.68-.03 6.26 0 8.84.31 21.94.9 43.89.84 65.83-.03 9.27-1.4 18.54-2.16 27.81-.23 2.79-.85 6.04-4.24 5.19-1.45-.37-2.98-4.17-2.87-6.32.73-13.93 2.65-27.83 2.74-41.75.12-18.53-1.08-37.07-1.73-55.93-10.37-1.28-18.44 2.24-27.51 6.69 0 7.54.04 15.43-.02 23.32-.04 4.65.05 9.34-.53 13.94-.17 1.34-2.32 2.95-3.86 3.38-.78.22-2.54-1.73-3.26-3.02-.58-1.04-.36-2.58-.32-3.9.54-16.6.85-33.22 1.78-49.8.46-8.26 2.12-16.45 3.15-24.68.49-3.89 2.49-5.87 6.47-6.15 8.62-.61 17.22-1.91 25.83-1.88 4.84.02 10.59.71 12.62 8.36-2.85 0-4.94.03-7.02-.01-8.25-.15-16.5-.47-24.75-.39-3.07.03-5.86 1.27-6.57 4.95-1.67 8.72-3.64 17.41-2.61 26.56 13.41-3.13 26.26-6.22 39.16-9.07 3.86-.85 7.89-1.45 11.8-1.3 1.62.06 3.15 2.42 4.72 3.73-1.55.9-3 2.26-4.66 2.62-5.4 1.15-10.9 1.94-17 2.98z"/><path d="m824.72 31.26c-1.27 5.98-5.13 4.94-8.21 5.44-10.81 1.78-21.59 3.79-32.44 5.29-6.87.94-9.57 4.76-10.2 11.27-1.14 11.91-3.24 23.75-3.89 35.68-1.31 24.33-4.77 48.3-10.11 72.05-.87 3.88-1.18 7.91-2.29 11.71-.46 1.55-2.38 2.67-3.64 3.98-1.24-1.64-3.69-3.44-3.5-4.9.89-6.91 2.5-13.73 3.84-20.58.38-1.93.73-3.86-.33-6.45-2.07 4.16-3.92 8.44-6.27 12.43-2.16 3.67-4.6 7.25-7.45 10.38-.79.87-4.78.52-5.07-.18-.73-1.78-1.01-5.31-.02-5.97 8.87-5.95 10.88-15.93 13.72-24.73 8.17-25.36 13.89-51.39 16.49-77.99 1.91-19.44 2.72-21.04 21.71-24.94 10.7-2.2 21.74-2.73 32.65-3.83 1.45-.14 3 .77 5.01 1.34z"/><path d="m208.26 66.78c0-9.15 0-17.61 0-27.1.58-.28 2.25-1.7 4-1.79 9.28-.47 18.58-.67 27.88-.81 2.71-.04 5.49.34 5.59 5-8.84 3.53-18.66.67-28.9 3.04-.5 6.28-1.02 12.71-1.65 20.59 4.77-.54 8.44-.95 11.87-1.34 1.9-13.18 1.9-13.18 5.33-17.16 5.87 3.26 1.44 9.23 4.26 14.86h18.6c1.02 5.11-1.35 6.29-4.15 6.62-2.95.35-5.97.12-8.95.25-4.73.21-7.33 2.52-7.39 7.48-.11 8.97-.22 17.94-.55 26.91-.12 3.41-.85 6.8-1.31 10.21-5.13-.5-4.9-3.41-4.93-5.97-.11-8.31-.11-16.62-.15-24.93-.01-3.23 0-6.46 0-10.6-4.38.27-7.56.47-10.89.68-5.16 12.61 2.28 26.31-4.96 38.1-4.09-11.71-2.12-23.86-3.58-36.6-13.02 2.69-25.49 5.28-38.46 7.96-1.47-5.93 1.98-7.47 6.05-8.36 8.76-1.92 17.54-3.71 26.31-5.57 1.58-.33 3.16-.77 5.98-1.47z"/><path d="m1145.64 26.24c-2.55.85-5.04 2-7.65 2.5-10.11 1.92-20.3 3.42-30.37 5.47-9.47 1.93-10.93 3.82-11.35 13.38-1.73 39.66-8.21 78.63-17.5 117.12-2.24 9.27-6.39 18.14-10.27 26.92-1.39 3.14-4.3 5.88-7.14 7.96-1.15.84-3.96-.57-6.01-.95.52-1.94.41-4.85 1.67-5.66 7.29-4.75 10-12.52 11.99-19.88 7.21-26.61 13.49-53.47 16.03-81.03 1.52-16.53 2.99-33.07 4.28-49.62.56-7.17 3.61-12.03 10.98-13.25 14.05-2.32 28.13-4.51 42.21-6.64.76-.12 1.67.76 2.51 1.17.2.83.41 1.67.62 2.51z"/><path d="m952.25 26.55c.43-2.74.92-5.97 1.45-9.2.64-3.94 1.19-7.91 2.02-11.81.63-2.96 1.64-6.59 5.52-5.26 1.48.5 2.82 4.3 2.58 6.41-.75 6.53-2.28 12.98-3.79 20.92 9.71-1.15 18.35-2.18 26.9-3.19 1.42 6.03-2.15 6.64-5.44 7.23-4.58.82-9.24 1.2-13.8 2.11-10.26 2.06-10.85 2.97-10.93 15.73 3.93-.41 7.78-.85 11.63-1.19 1.99-.18 4.15-.67 5.94-.11 1.86.59 3.37 2.29 5.03 3.5-1.64 1.16-3.15 3.01-4.94 3.34-4.54.84-9.2 1.16-13.83 1.38-5.17.25-7.78 2.9-8.74 7.85-.84 4.34-1.01 9.08-5.25 13.07-3.75-6.27.92-11.82-1.21-18.34-4.83.48-9.99.93-15.14 1.53-1.98.23-3.95 1.2-5.86 1.03-1.63-.14-3.15-1.44-4.72-2.22 1.01-1.53 1.69-3.75 3.1-4.43 2.65-1.26 5.71-1.69 8.63-2.34 1.62-.36 3.29-.71 4.94-.69 10.29.14 13.59 1.26 13.42-16.32-5.5 1.34-10.71 2.61-16.35 3.98-3.25-3.52-2.37-6.74 1.76-8.33 5.2-1.99 10.78-2.99 17.08-4.65z"/><path d="m399.21 72.25c-7.6-5.62-9.04-13.83-9.4-22.98 18.32-1.94 35.73-3.43 53.04-5.72s34.52-5.36 51.66-8.07c2.89 13.58-6.76 32.31-19.93 39.69-.43-6.61 5.76-9.48 7.14-14.57 1.35-4.98 2.89-9.91 4.41-15.05-2.23-.63-3.19-1.22-4.06-1.11-24.74 3.13-49.46 6.42-74.2 9.47-9.39 1.16-9.64 1.36-6.72 10.17.76 2.3.81 4.83 1.18 7.26-1.06.31-2.09.61-3.12.91z"/><path d="m1000.91 73.42c-.53-.07 1.29-.23 2.68.46 1.29.64 2.92 2.16 2.96 3.34.05 1.23-1.37 3.14-2.61 3.65-2.06.85-4.49 1.13-6.76 1.12-35.13-.19-69.01 8.13-103.12 14.92-3.01.6-6.92 3.54-8.27-1.41-1.46-5.4 3.45-5.47 6.9-6.07 14.69-2.58 29.4-5.06 44.11-7.5 12.07-2 24.14-4.09 36.26-5.76 8.51-1.18 17.12-1.72 27.85-2.75z"/><path d="m561.52 127.76c-.95 5.21-1.91 10.42-3.04 16.61 9.09-1.07 16.39-7.82 25.44-7.04.81 4.81-2.73 5.51-5.21 6.65-4.83 2.22-9.77 4.29-14.84 5.89-4.95 1.56-7.77 4.48-9.03 9.54-2.01 8.07-4.35 16.06-6.74 24.03-.59 1.99-1.88 3.77-2.92 5.8-4.98-2.49-3.74-5.97-2.94-9.04 3.78-14.49 7.6-28.98 11.67-43.39.96-3.41 2.98-6.52 4.51-9.78 1.04.24 2.07.49 3.1.73z"/><path d="m582.28 51.74c6.27 2.86 4.35 6.08 3.28 9.15-3.07 8.77-6.25 17.5-9.12 26.34-.89 2.72-.94 5.71-1.57 9.86 3.82 0 6.75-.45 9.44.15 1.92.43 3.52 2.26 5.27 3.46-1.59 1.25-3.16 2.51-4.77 3.72-.22.17-.65.04-.98.07-16.91 1.61-19.08-.93-14.26-16.91 2.59-8.59 5.2-17.17 8.05-25.67 1.12-3.33 2.93-6.44 4.66-10.17z"/><path d="m1194.41 144.45c.52-1.4.77-2.99 1.6-4.18 9.67-13.83 19.37-27.63 29.21-41.34 1.91-2.66 4.11-5.35 6.78-7.12 1.38-.91 4.07.17 6.17.35-.33 1.78-.11 3.98-1.09 5.27-11.22 14.69-22.56 29.29-34.05 43.77-1.67 2.11-4.33 3.44-6.54 5.12-.7-.63-1.39-1.25-2.08-1.87z"/><path d="m390.5 88.1c18.44-5.22 37.14-6.42 56.93-9.31-1.81 7.44-6.85 8.45-10.88 9.09-13.01 2.08-26.14 3.4-39.23 4.99-2.63.32-5.42.9-6.82-4.77z"/><path d="m774.71 71.53c2.84-5.24 7.13-9.02 12.54-11.8 11.17-5.74 23.14-8.07 35.57-8.66 2.89-.14 5.73-.05 5.94 3.52.21 3.47-2.16 3.95-5.32 4.05-15.86.51-30.85 4.15-44.06 13.49-.94.67-2.24.83-3.38 1.23-.43-.62-.86-1.22-1.29-1.83z"/><path d="m1035.37 139.82c1.53-2.14 2.74-5.24 5.01-6.72 7.54-4.91 15.47-9.23 24.43-14.48-.38 2.35-.15 3.92-.81 4.52-7.05 6.46-14.12 12.9-21.44 19.04-2.59 2.18-5.53 2.22-7.19-2.36z"/><path d="m744.19 115.25c-.79 1.31-1.29 2.98-2.41 3.87-6.44 5.12-12.9 10.22-19.65 14.91-1.4.97-4.02.18-6.08.2.32-1.8.02-4.2 1.07-5.3 7.11-7.46 16.07-11.89 25.49-15.42.52.58 1.05 1.16 1.58 1.74z"/><path d="m1057.88 78.03c5.48.01 10.69 1.04 14.4 5.44.85 1.01 1.23 3.37.62 4.38-.55.91-2.81 1.26-4.22 1.07-4.52-.61-9.06-1.36-13.47-2.52-2.28-.6-5.81-1.86-6.13-3.38-.82-3.85 2.64-4.69 5.8-4.99.99-.08 2 0 3 0z"/><path d="m1280.43 130.78c12.32-6.37 29.24-7.97 35.64-3.86-5.98 4.56-25.34 6.94-35.64 3.86z"/><path d="m747.56 91.86c-5.17-2.94-9.88-5.67-14.64-8.31-2.49-1.38-4.7-3.02-3.16-6.17 1.82-3.72 4.77-2.87 7.47-1.05 3.54 2.39 7.2 4.69 10.31 7.57 2.63 2.45 3.36 5.57.02 7.96z"/><path d="m668.48 69.39c-5.37-3.54-10.03-6.4-14.41-9.64-1.06-.78-1.93-2.99-1.6-4.18.35-1.23 2.66-3.08 3.43-2.8 3.56 1.32 7.49 2.65 10.14 5.18 2.81 2.7 6.18 6.36 2.44 11.44z"/><path d="m45.79 26.24c4.85-7.37 10.99-8.53 21.52-4.69-2.77 4.98-7.11 5.99-21.52 4.69z"/><path d="m1111.34 9.58c1.98-1.8 3.7-4.55 5.99-5.16 2.99-.8 6.45-.09 9.65.4.68.1 1.59 2.13 1.45 3.14-.15 1.07-1.31 2.69-2.23 2.83-4.46.71-8.99 1-13.5 1.45-.45-.89-.91-1.78-1.36-2.66z"/><path d="m799.52 17.66c3-2.65 4.42-4.95 6.07-5.11 2.33-.24 4.92.89 7.18 1.9.61.27.83 3.23.57 3.34-2.21.91-4.55 1.74-6.91 1.97-1.43.13-2.96-.84-6.91-2.1z"/></svg>