<svg enable-background="new 0 0 453.54 170.08" viewBox="0 0 453.54 170.08" xmlns="http://www.w3.org/2000/svg"><path d="m84.12 87.18c3.88-.18 7.27-.5 10.47-1.82 2.99-1.24 4.67-1.27 7.81.12.23-.58.53-1.14.66-1.73.92-3.92.81-7.89.64-11.88-.17-4.08-.15-8.16-.18-12.24-.06-6.36-.12-12.73-.14-19.09-.01-3.33.13-6.66.1-9.99-.03-3.8 1.43-5.01 5.5-4.29 1.18 3.29 1.51 6.62.65 10.18-.5 2.06-.26 4.3-.35 6.45-.21 4.64-.5 9.27-.6 13.91-.08 3.98.06 7.96.1 11.95.03 3.14.31 6.31.03 9.42-.43 4.8-1.33 9.55-1.9 14.33-.81 6.81-1.11 13.65-.97 20.51.04 1.78.16 3.66-.3 5.34-.65 2.34.15 4.51.22 6.75.11 3.5.44 7.01.36 10.51-.09 3.69-.46 7.39-.89 11.06-.3 2.54-.89 5.04-1.42 7.55-.11.54-.47 1.03-.76 1.52-.8 1.37-1.89 2.92-3.51 2.2-1.17-.53-2.25-2.09-2.62-3.4-.5-1.79-.29-3.78-.4-5.68-.08-1.47.85-2.32 1.97-2.89 1.66-.84 2.27-2.1 2.25-3.92-.04-5.22.42-10.47-.08-15.64-.5-5.14-.05-10.21-.07-15.31-.01-2.09-.09-4.2.09-6.28.39-4.43.93-8.85 1.39-13.28.05-.45.01-.91.01-1.68-3.08.46-6.04.85-8.99 1.36-3.36.58-6.72 1.2-10.06 1.94-3.62.8-7.34 1.42-10.79 2.72-6.54 2.46-13.43 3.33-20.13 5.05-4.23 1.09-8.58 1.71-12.89 2.47-1.18.21-2.27.48-2.88 1.58-.83 1.5-2.23 1.75-3.68 1.67-1.51-.09-3.03-.36-4.52-.68-1.04-.23-1.99-.71-2.11-2-.12-1.18.38-2.05 1.31-2.67.46-.3 1.02-.46 1.55-.64 5.77-2.01 11.74-3.05 17.78-3.9 4.19-.59 8.3-1.81 12.22-2.69.21-.56.38-.77.33-.9-.81-2.18-.83-3.87 1.81-5.03.92-.4 1.54-2.14 1.74-3.37.28-1.66.26-3.46-.05-5.12-.32-1.72-.16-3.35.14-5 .39-2.18.1-4.35-1.3-5.91-1.56-1.72-1.13-3.34-.12-4.63 1.62-2.07 1.42-4.22 1.15-6.5-.13-1.13-.36-2.28-.32-3.41.07-1.96-.48-3.71-1.16-5.52-1.5-3.95-3.24-7.86-3.7-12.12-.19-1.75-.02-3.54-.02-4.9 10.74-4.1 19.96-9.83 29.22-15.87.18.29.7.86.61.99-1.17 1.61-1.06 3.74-2.78 5.23-4.82 4.18-10.63 6.62-16.05 9.74-.99.57-2.06 1-3.05 1.57-2.18 1.28-2.69 2.44-2.27 4.96.11.65.23 1.33.51 1.92 2.06 4.21 3.17 8.68 3.94 13.27.37 2.2 1.29 2.59 3 1.24 4.42-3.48 9.17-6.4 14.21-8.87.51-.25.99-.58 1.53-.76 2.98-1.02 4.34-.17 4.63 2.95.32 3.5.14 6.95-.49 10.45-1.1 6.15-1.86 12.37-2.63 18.57-.38 3.09-1.48 5.84-3.1 8.45-.21.38-.32.85-.65 1.68zm1.62-35.78c-1.04-.3-1.87-.05-2.82.63-3.3 2.35-6.67 4.62-10.07 6.84-2.8 1.83-4.44 4.1-4.32 7.69.15 4.17-.12 8.36-.3 12.54-.09 2.07-.39 4.13-.63 6.19-.24 2.02-.54 4.04-.83 6.12 2.77.57 5.06-.25 7.08-1.41 5.1-2.94 7.92-7.76 9-13.29 1.34-6.84 1.99-13.81 2.86-20.73.19-1.46.03-2.96.03-4.58z"/><path d="m219.88 54.46c-4.44 1.1-8.21 2.01-11.96 2.96-1.65.42-2.82 1.46-3.78 2.86-1.08 1.56-2.05 1.81-2.99.99-1.44-1.27-1.81-3.54-.49-4.48 3.44-2.45 6.62-5.24 11.38-5.27 2.73-.02 5.49-1.36 8.16-2.31.57-.2 1.04-1.26 1.19-2 .23-1.2.16-2.46.21-3.7.02-.38 0-.76.01-1.14.09-2.59 1.02-3.81 2.67-3.52 1.91.33 3.09 2.2 2.68 4.24-.13.65-.3 1.3-.37 1.96-.06.66-.01 1.33-.01 2.11 1.9.91 3.7-.01 5.51-.27 1.4-.2 2.79-.5 4.2-.68.86-.11 1.85-.17 2.05.98.19 1.07.01 2.18-1.09 2.71-1.11.53-2.29.96-3.48 1.27-1.83.48-3.69.86-5.56 1.19-2.08.37-3.25 1.68-3.52 3.62-.47 3.38-.79 6.8-1.05 10.21-.2 2.55-.1 2.61 2.36 2.71 2.31.09 4.09 1.36 5.98 2.43 1.82 1.03 3.62 2.11 5.52 2.95 2.16.95 2.9.41 3.08-2.02.1-1.32.07-2.65.09-3.98.04-4.27.18-8.54.06-12.81-.06-2.15-.65-4.28-.95-6.42-.34-2.45-.58-4.91-.93-7.36-.19-1.31-.49-2.61-.79-3.91-.57-2.52.15-3.36 2.85-3.69 4.35-.53 8.69-1.1 13.01-1.83 3.36-.57 6.66-1.52 10.03-2.09 2.34-.39 4.74-.61 7.1-.54 1.34.04 2.78.63 3.95 1.33 1.91 1.15 1.8 4.34-.13 5.42-1.08.6-2.23.8-3.31-.44-1.72-1.98-3.76-2.42-6.41-1.47-2.19.78-4.65.78-7 1.11-.75.11-1.66-.05-2.24.32-2.94 1.88-6.23 1.4-9.42 1.59-2.64.15-3.39.93-3.09 3.57.22 1.88.41 3.8.93 5.61.92 3.26 1.11 6.56 1.1 9.9 0 .27.13.54.22.9 1.26.68 2.13-.07 2.98-.84 1.05-.96 2.04-2.01 3.15-2.91 3.52-2.86 7.54-4.7 11.96-5.72 2.31-.54 4.56-1.35 6.85-1.98 3.14-.86 4.11.07 4.08 3.37-.02 2.94.3 5.87.38 8.81.09 3.33.07 6.66.1 10 0 .09-.01.19-.04.28-.78 2.22 1.42 4.13.39 6.64-.79 1.95-.17 4.47-.18 6.74v6.98c1.17.09 2 .1 2.81.22.92.13 1.79.57 1.68 1.58-.07.63-.65 1.26-1.14 1.76-.3.31-.85.4-1.31.53-1.28.36-1.85 1.25-1.95 2.52-.02.29-.05.57-.09.85-.22 1.58-.1 3.4-2.07 4.01-1.72.54-2.82-.67-4.01-1.55.28-1.19.54-2.28.86-3.66-.98.09-1.72.06-2.41.24-4.5 1.17-8.97 2.46-13.48 3.56-2.01.49-4.09.77-6.16.87-.64.03-1.64-.71-1.9-1.33-.42-1.01.04-2.06 1.09-2.67.33-.19.68-.41 1.04-.46 4.07-.48 7.72-2.57 11.89-2.88 2.99-.22 5.91-1.32 8.87-1.99.98-.22 1.55-.81 1.5-1.79-.2-4.27-.44-8.53-.72-12.8-.07-1.06-.83-1.48-1.82-1.29-2.89.54-5.85-.17-8.78.83-1.9.65-4.11.46-6.19.44-.6-.01-1.56-.63-1.71-1.15-.19-.67.04-1.79.53-2.24.72-.66 1.8-1.12 2.79-1.26 3.75-.53 7.49-1.49 11.34-.88.56.09 1.15.09 1.71.03 1.97-.19 2.65-.89 2.8-2.89.28-3.82.1-7.61-.61-11.37-.18-.93-.22-1.89-.33-2.83-.15-1.22-.91-1.65-2.02-1.39-5.46 1.28-10.88 2.69-15.05 6.82-.81.8-1.56 1.65-2.31 2.51-1.06 1.21-2.01 2.52-3.17 3.63-1.04.99-1.52 2-1.53 3.48-.02 3.61-.3 7.23-.43 10.84-.07 1.8-.18 3.62-.05 5.41.3 4.04-1.01 7.89-1.3 11.86-.03.46-.21.93-.4 1.36-.74 1.65-2.58 3.08-3.68 2.63-1.43-.59-2.57-1.57-2.55-3.4.02-1.49-.25-3-.14-4.48.05-.66.58-1.64 1.12-1.84 1.88-.69 1.91-2.29 1.98-3.75.1-1.99-.03-4.01-.26-5.99-.07-.59-.84-1.6-1.26-1.58-3.72.18-5.94-2.78-8.93-4.08-.87-.38-1.7-.82-2.56-1.22-2.3-1.08-3.6-.59-4.25 1.91-.57 2.2-.97 4.47-1.21 6.74-.55 5.2-.93 10.42-1.43 15.63-.08.83-.18 1.93-.72 2.37-.7.58-1.84.84-2.79.86-1 .02-1.39-.87-1.33-1.85.26-4.07.41-8.16.83-12.22.31-3.01.99-5.97 1.45-8.96.11-.71-.04-1.46-.08-2.37-1.71.01-2.96.51-3.99 1.57-2.06 2.11-4.26 4.11-6.13 6.39-3.15 3.84-7.14 6.79-10.67 10.22-1.95 1.9-3.88 3.84-6.59 4.86-1.33.5-2.22 2.06-3.5 2.84-1 .62-2.26.97-3.44 1.08-1.19.11-1.76-.97-1.02-1.91.55-.7 1.47-1.11 2.23-1.63 1.24-.84 2.6-1.54 3.72-2.51 3.93-3.43 7.81-6.92 11.63-10.47 1.25-1.16 2.29-2.54 3.42-3.83 2-2.29 4-4.57 5.98-6.88 1.28-1.5 2.43-3.14 3.8-4.55 1.18-1.2 2.46-2.39 4.28-2.64 1.16-.15 1.49-.95 1.6-2.02.31-3.12.72-6.23 1.05-9.36.1-.77.03-1.58.03-2.86z"/><path d="m359.45 75.48c2.77-4.52 7.22-5.91 11.67-7.35 2.06-.67 4.13-1.41 6.03-2.44 4.28-2.33 8.92-3.14 13.66-3.58 1.2-.11 2.27.13 2.86 1.39.65 1.39.48 2.48-.98 3.05-1.4.55-1.96 1.44-2.52 2.75-.44 1.05-1.5 2-2.51 2.61-3.95 2.37-7.18 5.48-9.89 9.39 1.28-.48 2.53-1.24 3.84-1.35 1.25-.11 2.56.46 4.08.78 2.28-3.04 4.58-6.15 6.93-9.22.62-.81 1.32-1.63 2.15-2.2 1.18-.81 2.48-.5 3.64.44 1.05.85.87 1.83.43 2.83-.38.86-.77 1.75-1.37 2.46-6.57 7.9-13.23 15.72-20.48 23.03-1.02 1.03-1.68 2.41-2.59 3.74 3.88 1.69 7.4 2.21 11.06.56.84-.38 1.85-.5 2.78-.52 1.9-.03 2.83 1.38 1.9 3.05-.52.93-1.44 1.8-2.4 2.29-2.91 1.47-6.07 1.4-9.22 1.06-1.7-.18-3.4-.42-5.1-.63-1.72-.21-3.21.31-4.47 1.46-3.16 2.88-6.14 5.94-8.6 9.47-.54.78-1.08 1.59-1.76 2.24-.87.84-2.07.79-2.85.08-.48-.44-.71-1.64-.46-2.27.48-1.21 1.3-2.32 2.11-3.36 2.34-2.99 4.74-5.92 7.38-9.19-1.67-.62-3.11-1.27-4.62-1.68-2.23-.61-3.52-2.19-4.55-4.06-.93-1.69.25-3.09.86-4.52.28-.66.84-1.21 1.51-2.15-1.01 0-1.63.06-2.25-.01-1.17-.13-2.31-.4-2.52-1.84-.17-1.15.67-2.41 1.93-2.87 3.28-1.18 6.58-2.32 9.86-3.48 2.36-.83 4.48-1.98 6.18-3.92 3.08-3.5 6.28-6.89 9.4-10.35.53-.59.91-1.32 1.36-1.98-.12-.16-.23-.32-.35-.49-.77.24-1.55.44-2.3.72-3.54 1.33-7.11 2.61-10.6 4.08-1.55.65-2.97 1.65-4.38 2.58-1.83 1.25-3.27 1.12-4.85-.6zm22.6 9.64c-.17-.2-.35-.39-.52-.59-8.29 2.2-14.8 7.1-20.33 13.65 1.35 1.81 3.03 2.53 4.73 3 1.59.44 3.02.17 4.17-1.5 1.38-2.01 3.26-3.66 4.82-5.56 2.43-2.96 4.76-6 7.13-9z"/><path d="m398.54 43.72c-5.76.83-10.75 2.28-15.64 4.09-4.82 1.78-9.75 3.11-14.87 3.69-1.22.14-2.42.51-3.64.66-1.03.12-2.08.18-3.11.08-1.07-.11-1.65-.86-1.76-1.94s.28-1.96 1.33-2.25c2.01-.56 4.05-1.34 6.08-1.39 5.24-.11 10.16-1.55 14.96-3.33 4.75-1.76 9.56-3.15 14.53-4.11 1.09-.21 2.08-.93 3.17-1.2 1.82-.45 3.68-.99 5.53-1 1.91 0 2.77 1.93 1.41 3.19-2.78 2.55-2.22 5.87-2.37 8.93-.13 2.71.53 5.44.75 8.17.27 3.39.36 6.79.7 10.18.29 2.92.71 5.84 1.23 8.73.64 3.55 1.39 7.08 2.18 10.6 1.19 5.28 2.41 10.55 3.69 15.81.89 3.68 1.84 7.35 2.88 10.99.44 1.54 1.25 2.97 1.75 4.49.41 1.25.8 2.56.9 3.87.25 3.45.96 6.75 2.43 9.9.55 1.18 1.06 2.51 1.1 3.78.11 3.53 2.58 6.24 2.98 9.7.39 3.38 1.45 6.68 2.11 10.04.31 1.57.39 3.19.53 4.79.09 1.05-1.35 3.36-2.31 3.7-1.28.46-2.1-.34-2.51-1.31-1.27-2.96-2.68-5.86-3.06-9.15-.27-2.35-.92-4.65-1.29-6.99-.31-1.96-.32-3.98-.72-5.92-.35-1.74-1.11-3.39-1.58-5.11-.76-2.73-1.44-5.48-2.14-8.22-.05-.18-.07-.38-.08-.57-.12-4.24-1.8-8.08-3.04-12.04-1.19-3.8-2.88-7.58-3.27-11.48-.44-4.41-2.02-8.48-2.69-12.79-1.01-6.54-2.5-13-3.64-19.53-.44-2.51-.57-5.09-.68-7.65-.23-5.12-.15-10.26-1.5-15.29-.33-1.21-.22-2.55-.34-4.12z"/><path d="m360.7 55.78c-.83 4.52-1.2 8.53-2.32 12.31-2.33 7.81-5.04 15.51-7.64 23.24-2.27 6.75-4.51 13.51-6.97 20.19-2.37 6.41-5 12.72-7.52 19.08-.77 1.94-1.53 3.88-2.34 5.79-.89 2.11-2.36 2.62-4.28 1.5-.49-.28-.91-.69-1.31-1.1-1.23-1.28-1.33-2.21.15-3 2.17-1.17 2.87-3.11 3.68-5.17 2.39-6.09 5.14-12.04 7.26-18.22 2.45-7.14 5.61-14.04 7.14-21.52.75-3.67 2.43-7.15 3.68-10.72.94-2.68 1.83-5.38 2.77-8.07 1.46-4.15 1.52-8.54 2.32-12.81.18-.98.58-2.1 1.26-2.75.55-.52 1.84-.79 2.53-.5.79.36 1.3 1.41 1.59 1.75z"/><path d="m121.58 43.7c-1.38.82-2.29 1.61-3.33 1.9-.81.22-2.1.12-2.6-.4-.44-.46-.45-1.94-.03-2.53 2-2.78 4.18-5.47 7.44-6.85 1.31-.56 2.83-.54 4.03.51 1.31 1.15.81 2.56.51 3.97-.59 2.77-1.29 5.53-1.62 8.34-.25 2.09.84 3.9 2.55 5.07 3.04 2.09 6.14 4.09 9.32 5.95 1.49.87 2.11 2.01 2.44 3.6 1.2 5.87-.28 11.08-3.68 15.89-.93 1.31-1.69 2.76-2.42 4.19-1.45 2.85-2.81 5.75-4.25 8.61-.95 1.89-2.4 2.75-4.07 2.55-1.35-.16-1.88-.81-1.6-2.13.15-.74.33-1.54.75-2.14 3.28-4.66 4.89-10.22 8.3-14.87 1.51-2.07 1.87-5.13 2.27-7.82.45-2.99-1.79-4.58-4.07-5.91-1.31-.77-2.69-1.41-3.98-2.21-4.94-3.01-8.9-7.7-5.96-15.72z"/><path d="m370.92 18.01c1.18 2.71-1.93 3.91-2.15 6.08 2.91 1.35 10.67.65 13.99-1.27-.63-1.61-1.08-3.28.02-5 .29-.45.16-1.39-.11-1.95-1.13-2.29-.43-4.7-.57-7.04-.1-1.64.95-2.74 2.22-2.77 1.72-.04 3.26 1.29 3.26 2.88-.01 3.23.01 6.47-.13 9.69-.05 1.2-.51 2.38-.83 3.77.65-.07 1.28-.08 1.88-.21 4.92-1.06 9.84-2.15 14.77-3.21 1.9-.41 3.11.02 3.43 1.13.35 1.22-1.1 2.92-2.58 3.63-3.5 1.68-7.36 1.38-10.99 2.27-2.58.63-5.14 1.36-7.75 1.8-5.97.99-11.91 2.46-18.05 1.67-3.19-.41-4.7-2.34-4.17-5.52.17-1.03.43-2.07.86-3.01.29-.65.85-1.37 1.47-1.63 1.52-.66 3.15-1.09 4.75-1.56.18-.06.49.18.68.25z"/><path d="m414.36 78.12c-.75-.6-1.64-1.03-2.04-1.74-.19-.34.46-1.29.9-1.81.78-.92 1.7-1.71 2.55-2.57 1.13-1.14 2.23-2.32 3.39-3.44.97-.94 2.2-.88 3.15-.19 1.04.75 2.34 1.67 2.04 3.16-.15.74-1.05 1.69-1.78 1.88-2.03.51-3.58 1.52-4.99 3.05-.71.77-1.96 1.04-3.22 1.66z"/><path d="m420.9 49.45c-.14 1.88-.25 3.58-2.22 4.29-2.51-1.18-3.36-2.59-2.53-4.19.81-1.55 1.97-1.6 4.75-.1z"/></svg>